<?xml version="1.0" encoding="utf-8"?>
<!-- Generator: Adobe Illustrator 19.0.0, SVG Export Plug-In . SVG Version: 6.00 Build 0)  -->
<svg version="1.1" id="Layer_1" xmlns="http://www.w3.org/2000/svg" xmlns:xlink="http://www.w3.org/1999/xlink" x="0px" y="0px"
	 viewBox="0 0 663 248" enable-background="new 0 0 663 248" xml:space="preserve">
<polyline id="XMLID_77_" opacity="0.3" fill="#306DAC" enable-background="new    " points="644,3.4 644,32.9 5.4,32.9 5.4,3.4 
	644,3.4 "/>
<line id="XMLID_76_" opacity="0.6" fill="none" stroke="#FFFFFF" stroke-miterlimit="10" enable-background="new    " x1="5.4" y1="3.4" x2="5.4" y2="251.2"/>
<line id="XMLID_75_" opacity="0.6" fill="none" stroke="#FFFFFF" stroke-miterlimit="10" enable-background="new    " x1="62.3" y1="3.4" x2="62.3" y2="251.2"/>
<line id="XMLID_74_" opacity="0.6" fill="none" stroke="#FFFFFF" stroke-miterlimit="10" enable-background="new    " x1="318" y1="3" x2="318" y2="250.8"/>
<line id="XMLID_73_" opacity="0.6" fill="none" stroke="#FFFFFF" stroke-miterlimit="10" enable-background="new    " x1="391.6" y1="3.4" x2="391.6" y2="251.2"/>
<line id="XMLID_72_" opacity="0.6" fill="none" stroke="#FFFFFF" stroke-miterlimit="10" enable-background="new    " x1="643.9" y1="3" x2="643.9" y2="250.8"/>
<text id="XMLID_71_" transform="matrix(1 0 0 1 17.0111 22.969)" fill="#FFFFFF" font-family="'Arial-BoldMT'" font-size="13.3037px">Hạng</text>
<text id="XMLID_70_" transform="matrix(1 0 0 1 100.1596 22.969)" fill="#FFFFFF" font-family="'Arial-BoldMT'" font-size="13.3037px">Họ &amp; Tên</text>
<text id="XMLID_69_" transform="matrix(1 0 0 1 337.1323 22.969)" fill="#FFFFFF" font-family="'Arial-BoldMT'" font-size="13.3037px">Lớp</text>
<text id="XMLID_68_" transform="matrix(1 0 0 1 555.8109 22.969)" fill="#FFFFFF" font-family="'Arial-BoldMT'" font-size="13.3037px">LTTNPoint</text>
<text id="XMLID_67_" transform="matrix(1 0 0 1 24.9105 51.2385)" fill="#FBEA77" font-family="'Arial-BoldMT'" font-size="13.3037px">01</text>
<text id="XMLID_66_" transform="matrix(1 0 0 1 24.9105 89.4866)" fill="#FBEA77" font-family="'Arial-BoldMT'" font-size="13.3037px">02</text>
<text id="XMLID_65_" transform="matrix(1 0 0 1 24.9105 127.7346)" fill="#FBEA77" font-family="'Arial-BoldMT'" font-size="13.3037px">03</text>
<text id="XMLID_64_" transform="matrix(1 0 0 1 24.9105 165.9837)" fill="#FFFFFF" font-family="'Arial-BoldMT'" font-size="13.3037px">04</text>
<text id="XMLID_63_" transform="matrix(1 0 0 1 24.9105 204.2307)" fill="#FFFFFF" font-family="'Arial-BoldMT'" font-size="13.3037px">05</text>
<text id="XMLID_62_" transform="matrix(1 0 0 1 24.9105 242.4798)" fill="#FFFFFF" font-family="'Arial-BoldMT'" font-size="13.3037px">06</text>
<text id="XMLID_61_" transform="matrix(1 0 0 1 98.9125 50.4076)" fill="#FFFFFF" font-family="'ArialMT'" font-size="13.3037px">Nguyễn Văn Anh</text>
<text id="XMLID_60_" transform="matrix(1 0 0 1 98.9125 88.6546)" fill="#FFFFFF" font-family="'ArialMT'" font-size="13.3037px">Nguyễn Hồng Thơm</text>
<text id="XMLID_59_" transform="matrix(1 0 0 1 98.9125 126.9036)" fill="#FFFFFF" font-family="'ArialMT'" font-size="13.3037px">Nguyễn Tuấn Anh</text>
<text id="XMLID_58_" transform="matrix(1 0 0 1 98.9125 165.1516)" fill="#FFFFFF" font-family="'ArialMT'" font-size="13.3037px">Lê Xuân Công</text>
<text id="XMLID_57_" transform="matrix(1 0 0 1 98.9125 203.3997)" fill="#FFFFFF" font-family="'ArialMT'" font-size="13.3037px">Trần Thị Phương</text>
<text id="XMLID_56_" transform="matrix(1 0 0 1 98.9125 241.6487)" fill="#FFFFFF" font-family="'ArialMT'" font-size="13.3037px">Trần Thế Giang</text>
<text id="XMLID_55_" transform="matrix(1 0 0 1 333.3911 51.2385)" fill="#FFFFFF" font-family="'ArialMT'" font-size="13.3037px">QTH01</text>
<text id="XMLID_54_" transform="matrix(1 0 0 1 333.3911 89.4866)" fill="#FFFFFF" font-family="'ArialMT'" font-size="13.3037px">QTH03</text>
<text id="XMLID_53_" transform="matrix(1 0 0 1 333.3911 127.7346)" fill="#FFFFFF" font-family="'ArialMT'" font-size="13.3037px">QTH03</text>
<text id="XMLID_52_" transform="matrix(1 0 0 1 333.3911 165.9837)" fill="#FFFFFF" font-family="'ArialMT'" font-size="13.3037px">QTH05</text>
<text id="XMLID_51_" transform="matrix(1 0 0 1 333.3911 204.2307)" fill="#FFFFFF" font-family="'ArialMT'" font-size="13.3037px">QTH02</text>
<text id="XMLID_50_" transform="matrix(1 0 0 1 333.3911 242.4798)" fill="#FFFFFF" font-family="'ArialMT'" font-size="13.3037px">QTH10</text>
<text id="XMLID_49_" transform="matrix(1 0 0 1 557.4926 50.4076)" fill="#FFFFFF" font-family="'ArialMT'" font-size="13.3037px">235.000.000</text>
<text id="XMLID_48_" transform="matrix(1 0 0 1 557.4926 88.6546)" fill="#FFFFFF" font-family="'ArialMT'" font-size="13.3037px">235.000.000</text>
<text id="XMLID_47_" transform="matrix(1 0 0 1 557.4926 126.9036)" fill="#FFFFFF" font-family="'ArialMT'" font-size="13.3037px">128.000.000</text>
<text id="XMLID_46_" transform="matrix(1 0 0 1 557.4926 165.1516)" fill="#FFFFFF" font-family="'ArialMT'" font-size="13.3037px">120.000.000</text>
<text id="XMLID_45_" transform="matrix(1 0 0 1 557.4926 203.3997)" fill="#FFFFFF" font-family="'ArialMT'" font-size="13.3037px">104.000.000</text>
<text id="XMLID_44_" transform="matrix(1 0 0 1 564.8931 241.6487)" fill="#FFFFFF" font-family="'ArialMT'" font-size="13.3037px">99.000.000</text>
<image overflow="visible" width="100" height="76" id="XMLID_1_" xlink:href="f1.jpg"  transform="matrix(0.25 0 0 0.25 67 36)">
</image>
</svg>
