<?xml version="1.0" encoding="utf-8"?>
<!-- Generator: Adobe Illustrator 19.0.0, SVG Export Plug-In . SVG Version: 6.00 Build 0)  -->
<svg version="1.1" id="svg" xmlns="http://www.w3.org/2000/svg" xmlns:xlink="http://www.w3.org/1999/xlink" x="0px" y="0px"
	 viewBox="334 37 1280 720" enable-background="new 334 37 1280 720" xml:space="preserve">
<g id="playgame">
	<g id="groupbangxephang">
		<path opacity="0.65" stroke="#1E4675" stroke-width="3" stroke-miterlimit="10" enable-background="new    " d="M634.4,167.6
			h664.4c13.8,0,24.9,11.1,24.9,24.9v399.1c0,13.8-11.1,24.9-24.9,24.9H634.4c-13.8,0-24.9-11.1-24.9-24.9V192.5
			C609.5,178.7,620.6,167.6,634.4,167.6z"/>
		<rect x="630.3" y="218.3" opacity="0.5" fill="#0854BB" enable-background="new    " width="679.3" height="37.4"/>
		<text transform="matrix(1 0 0 1 653.4971 243.6803)" fill="#FFFFFE" font-family="'ArialMT'" font-size="16.6296px">Hạng:</text>
		<text transform="matrix(1 0 0 1 702.4932 243.6803)" fill="#FDEC75" font-family="'ArialMT'" font-size="16.6296px">25</text>
		<text transform="matrix(1 0 0 1 914.6543 243.6803)" fill="#FFFFFE" font-family="'ArialMT'" font-size="16.6296px">Lớp:</text>
		<text transform="matrix(1 0 0 1 953.2969 243.6803)" fill="#FDEC75" font-family="'ArialMT'" font-size="16.6296px">QTH10</text>
		<text transform="matrix(1 0 0 1 1080.6709 243.6803)" fill="#FFFFFE" font-family="'ArialMT'" font-size="16.6296px">Tổng LTTNPoint:</text>
		<text transform="matrix(1 0 0 1 1214.2871 243.6803)" fill="#FDEC75" font-family="'ArialMT'" font-size="16.6296px">1.000.000</text>
		<text transform="matrix(1 0 0 1 884.0127 289.8277)" fill="#FDEC75" font-family="'Arial-BoldMT'" font-size="13.3037px">BẢNG XẾP HẠNG TOP 10</text>
		<rect x="637.8" y="298.1" opacity="0.3" fill="#2D6BAA" enable-background="new    " width="638.6" height="29.5"/>
		
			<line opacity="0.6" fill="none" stroke="#FFFFFF" stroke-miterlimit="10" enable-background="new    " x1="637.8" y1="298.1" x2="637.8" y2="545.9"/>
		
			<line opacity="0.6" fill="none" stroke="#FFFFFF" stroke-miterlimit="10" enable-background="new    " x1="694.7" y1="298.1" x2="694.7" y2="545.9"/>
		
			<line opacity="0.6" fill="none" stroke="#FFFFFF" stroke-miterlimit="10" enable-background="new    " x1="950.4" y1="297.7" x2="950.4" y2="545.5"/>
		
			<line opacity="0.6" fill="none" stroke="#FFFFFF" stroke-miterlimit="10" enable-background="new    " x1="1024" y1="298.1" x2="1024" y2="545.9"/>
		
			<line opacity="0.6" fill="none" stroke="#FFFFFF" stroke-miterlimit="10" enable-background="new    " x1="1276.3" y1="297.7" x2="1276.3" y2="545.5"/>
		<text transform="matrix(1 0 0 1 649.4111 317.6832)" fill="#FFFFFF" font-family="'Arial-BoldMT'" font-size="13.3037px">Hạng</text>
		<text transform="matrix(1 0 0 1 732.5596 317.6832)" fill="#FFFFFF" font-family="'Arial-BoldMT'" font-size="13.3037px">Họ &amp; Tên</text>
		<text transform="matrix(1 0 0 1 969.5322 317.6832)" fill="#FFFFFF" font-family="'Arial-BoldMT'" font-size="13.3037px">Lớp</text>
		<text transform="matrix(1 0 0 1 1188.2109 317.6832)" fill="#FFFFFF" font-family="'Arial-BoldMT'" font-size="13.3037px">LTTNPoint</text>
		<text transform="matrix(1 0 0 1 657.3105 345.9527)" fill="#FDEC75" font-family="'Arial-BoldMT'" font-size="13.3037px">01</text>
		<text transform="matrix(1 0 0 1 657.3105 384.2008)" fill="#FDEC75" font-family="'Arial-BoldMT'" font-size="13.3037px">02</text>
		<text transform="matrix(1 0 0 1 657.3105 422.4488)" fill="#FDEC75" font-family="'Arial-BoldMT'" font-size="13.3037px">03</text>
		<text transform="matrix(1 0 0 1 657.3105 460.6979)" fill="#FFFFFF" font-family="'Arial-BoldMT'" font-size="13.3037px">04</text>
		<text transform="matrix(1 0 0 1 657.3105 498.9449)" fill="#FFFFFF" font-family="'Arial-BoldMT'" font-size="13.3037px">05</text>
		<text transform="matrix(1 0 0 1 657.3105 537.1941)" fill="#FFFFFF" font-family="'Arial-BoldMT'" font-size="13.3037px">06</text>
		<text transform="matrix(1 0 0 1 731.3125 345.1217)" fill="#FFFFFF" font-family="'ArialMT'" font-size="13.3037px">Nguyễn Văn Anh</text>
		<text transform="matrix(1 0 0 1 731.3125 383.3688)" fill="#FFFFFF" font-family="'ArialMT'" font-size="13.3037px">Nguyễn Hồng Thơm</text>
		<text transform="matrix(1 0 0 1 731.3125 421.6178)" fill="#FFFFFF" font-family="'ArialMT'" font-size="13.3037px">Nguyễn Tuấn Anh</text>
		<text transform="matrix(1 0 0 1 731.3125 459.8658)" fill="#FFFFFF" font-family="'ArialMT'" font-size="13.3037px">Lê Xuân Công</text>
		<text transform="matrix(1 0 0 1 731.3125 498.1139)" fill="#FFFFFF" font-family="'ArialMT'" font-size="13.3037px">Trần Thị Phương</text>
		<text transform="matrix(1 0 0 1 731.3125 536.3629)" fill="#FFFFFF" font-family="'ArialMT'" font-size="13.3037px">Trần Thế Giang</text>
		<text transform="matrix(1 0 0 1 965.791 345.9527)" fill="#FFFFFF" font-family="'ArialMT'" font-size="13.3037px">QTH01</text>
		<text transform="matrix(1 0 0 1 965.791 384.2008)" fill="#FFFFFF" font-family="'ArialMT'" font-size="13.3037px">QTH03</text>
		<text transform="matrix(1 0 0 1 965.791 422.4488)" fill="#FFFFFF" font-family="'ArialMT'" font-size="13.3037px">QTH03</text>
		<text transform="matrix(1 0 0 1 965.791 460.6979)" fill="#FFFFFF" font-family="'ArialMT'" font-size="13.3037px">QTH05</text>
		<text transform="matrix(1 0 0 1 965.791 498.9449)" fill="#FFFFFF" font-family="'ArialMT'" font-size="13.3037px">QTH02</text>
		<text transform="matrix(1 0 0 1 965.791 537.1941)" fill="#FFFFFF" font-family="'ArialMT'" font-size="13.3037px">QTH10</text>
		<text transform="matrix(1 0 0 1 1189.8926 345.1217)" fill="#FFFFFF" font-family="'ArialMT'" font-size="13.3037px">235.000.000</text>
		<text transform="matrix(1 0 0 1 1189.8926 383.3688)" fill="#FFFFFF" font-family="'ArialMT'" font-size="13.3037px">235.000.000</text>
		<text transform="matrix(1 0 0 1 1189.8926 421.6178)" fill="#FFFFFF" font-family="'ArialMT'" font-size="13.3037px">128.000.000</text>
		<text transform="matrix(1 0 0 1 1189.8926 459.8658)" fill="#FFFFFF" font-family="'ArialMT'" font-size="13.3037px">120.000.000</text>
		<text transform="matrix(1 0 0 1 1189.8926 498.1139)" fill="#FFFFFF" font-family="'ArialMT'" font-size="13.3037px">104.000.000</text>
		<text transform="matrix(1 0 0 1 1197.293 536.3629)" fill="#FFFFFF" font-family="'ArialMT'" font-size="13.3037px">99.000.000</text>
		<text transform="matrix(1 0 0 1 839.9561 203.7701)" fill="#FFFFFF" font-family="'Arial-BoldMT'" font-size="18.2926px">HỌ VÀ TÊN:</text>
		<text transform="matrix(1 0 0 1 945.6475 203.7701)" fill="#FDEC75" font-family="'Arial-BoldMT'" font-size="18.2926px">LÊ XUÂN ĐĂNG</text>
		
			<image overflow="visible" enable-background="new    " width="155" height="40" xlink:href="images/btThoat.png"  transform="matrix(0.8315 0 0 0.8315 904.6759 569.3438)">
		</image>
		
			<rect id="btThoatBangXepHang_event" x="904.7" y="567" opacity="1.000000e-004" fill="#FFFFFF" enable-background="new    " width="128.9" height="37.7"/>
	</g>
	<g id="bangxephang">
		
			<image overflow="visible" enable-background="new    " width="227" height="415" xlink:href="images/logo2.png"  transform="matrix(1.0819 0 0 1.0819 334 167.6003)">
		</image>
		<g>
			<g>
				<g>
					<g>
						<defs>
							<path id="SVGID_1_" d="M599.4,37.6h765.2c18.5,0,33.4,10.3,33.4,23v113c0,12.7-15,23-33.4,23H599.4
								c-18.5,0-33.4-10.3-33.4-23v-113C566,47.9,581,37.6,599.4,37.6z"/>
						</defs>
						<clipPath id="SVGID_2_">
							<use xlink:href="#SVGID_1_"  overflow="visible"/>
						</clipPath>
						
							<path opacity="0.65" clip-path="url(#SVGID_2_)" stroke="#B9D2ED" stroke-width="3" stroke-miterlimit="10" enable-background="new    " d="
							M641-26.9h653c15.7,0,28.5,10.8,28.5,24.1v117.9c0,13.3-12.8,24.1-28.5,24.1H641c-15.7,0-28.5-10.8-28.5-24.1V-2.8
							C612.5-16.1,625.3-26.9,641-26.9z"/>
					</g>
				</g>
			</g>
		</g>
		
			<image overflow="visible" enable-background="new    " width="211" height="274" xlink:href="images/quaylaibatdau.png"  transform="matrix(1 0 0 1 1404 316.6003)">
		</image>
		
			<rect id="btIntroQuayLai_event" x="1404" y="315.6" opacity="1.000000e-003" enable-background="new    " width="211" height="129.5"/>
		
			<rect id="btIntroBatDau_event" x="1405" y="462.1" opacity="1.000000e-003" enable-background="new    " width="211" height="129.5"/>
		<g id="huongdanlambai" display="none">
			
				<image display="inline" overflow="visible" enable-background="new    " width="497" height="73" xlink:href="images/hungdanlambai.png"  transform="matrix(1 0 0 1 724 50.6002)">
			</image>
			
				<path display="inline" opacity="0.65" stroke="#B9D2ED" stroke-width="2" stroke-miterlimit="10" enable-background="new    " d="
				M643.5,180.1h645c16.6,0,30,13.4,30,30v347c0,16.6-13.4,30-30,30h-645c-16.6,0-30-13.4-30-30v-347
				C613.5,193.5,626.9,180.1,643.5,180.1z"/>
		</g>
	</g>
</g>
<rect x="637.8" y="298.1" fill="#FFFFFF" width="662.3" height="247.8"/>
</svg>
