<?xml version="1.0" encoding="utf-8"?>
<!-- Generator: Adobe Illustrator 19.0.0, SVG Export Plug-In . SVG Version: 6.00 Build 0)  -->
<svg version="1.1" id="Layer_1" xmlns="http://www.w3.org/2000/svg" xmlns:xlink="http://www.w3.org/1999/xlink" x="0px" y="0px"
	 viewBox="0 0 1280 720" enable-background="new 0 0 1280 720" xml:space="preserve">
<path id="XMLID_55_" opacity="0.8" fill="#1D1751" stroke="#BAD2ED" stroke-width="3" stroke-miterlimit="10" enable-background="new    " d="
	M113.5,151.7h789c16.6,0,30,13.4,30,30v229c0,16.6-13.4,30-30,30h-789c-16.6,0-30-13.4-30-30v-229
	C83.5,165.1,96.9,151.7,113.5,151.7z"/>
<path id="XMLID_54_" opacity="0.8" fill="#160F43" stroke="#BAD2ED" stroke-width="3" stroke-miterlimit="10" enable-background="new    " d="
	M219.6,274.9c31.3,0,56.7,25.4,56.7,56.8s-25.4,56.8-56.8,56.8s-56.8-25.4-56.8-56.8C162.9,300.3,188.3,274.9,219.6,274.9z"/>
<g id="goidienchonguoithan">
	<text id="XMLID_53_" transform="matrix(1 0 0 1 111.7656 417)" fill="#FFFFFF" font-family="'ArialMT'" font-size="20px">Gọi điện cho người thân</text>
	
		<image overflow="visible" enable-background="new    " width="86" height="86" id="XMLID_52_" xlink:href="images/goidienthoaiicon.png"  transform="matrix(1 0 0 1 176.1484 290.6875)">
	</image>
	<text id="XMLID_51_" transform="matrix(1 0 0 1 305 187.667)" fill="#FFFFFF" font-family="'ArialMT'" font-size="19px">CHỌN 1 TRONG NHỮNG NGƯỜI DƯỚI ĐÂY ĐỂ TRỢ GIÚP CHO BẠN</text>
	<path id="XMLID_50_" fill="#2F3A5B" stroke="#FFFFFF" stroke-width="2" stroke-miterlimit="10" d="M363.8,197.9h95c2.8,0,5,2.2,5,5
		v57c0,2.8-2.2,5-5,5h-95c-2.8,0-5-2.2-5-5v-57C358.8,200.2,361.1,197.9,363.8,197.9z"/>
	<text id="XMLID_49_" transform="matrix(1 0 0 1 364.9932 282.167)" fill="#010101" font-family="'ArialMT'" font-size="12px">                     </text>
	<text id="XMLID_48_" transform="matrix(1 0 0 1 356.4346 282.167)" fill="#FCEB76" font-family="'ArialMT'" font-size="14px">A: </text>
	<text id="XMLID_47_" transform="matrix(1 0 0 1 373.5518 282.167)" fill="#010101" font-family="'ArialMT'" font-size="12px">                     </text>
	<text id="XMLID_46_" transform="matrix(1 0 0 1 382.9922 282.167)" fill="#FFFFFF" font-family="'ArialMT'" font-size="14px">A</text>
	<text id="XMLID_45_" transform="matrix(1 0 0 1 392.3301 282.167)" fill="#010101" font-family="'ArialMT'" font-size="12px">                 </text>
	<path id="XMLID_44_" fill="#2F3A5B" stroke="#FFFFFF" stroke-width="2" stroke-miterlimit="10" d="M561.5,197.9h95c2.8,0,5,2.2,5,5
		v57c0,2.8-2.2,5-5,5h-95c-2.8,0-5-2.2-5-5v-57C556.5,200.2,558.7,197.9,561.5,197.9z"/>
	<text id="XMLID_43_" transform="matrix(1 0 0 1 564.9932 282.167)" fill="#010101" font-family="'ArialMT'" font-size="12px">                     </text>
	<text id="XMLID_42_" transform="matrix(1 0 0 1 556.4346 282.167)" fill="#FCEB76" font-family="'ArialMT'" font-size="14px">A: </text>
	<text id="XMLID_41_" transform="matrix(1 0 0 1 573.5518 282.167)" fill="#010101" font-family="'ArialMT'" font-size="12px">                     </text>
	<text id="XMLID_40_" transform="matrix(1 0 0 1 582.9922 282.167)" fill="#FFFFFF" font-family="'ArialMT'" font-size="14px">A</text>
	<text id="XMLID_39_" transform="matrix(1 0 0 1 592.3301 282.167)" fill="#010101" font-family="'ArialMT'" font-size="12px">                 </text>
	<path id="XMLID_38_" fill="#2F3A5B" stroke="#FFFFFF" stroke-width="2" stroke-miterlimit="10" d="M753.5,197.9h95c2.8,0,5,2.2,5,5
		v57c0,2.8-2.2,5-5,5h-95c-2.8,0-5-2.2-5-5v-57C748.5,200.2,750.7,197.9,753.5,197.9z"/>
	<text id="XMLID_37_" transform="matrix(1 0 0 1 764.9932 282.167)" fill="#010101" font-family="'ArialMT'" font-size="12px">                     </text>
	<text id="XMLID_36_" transform="matrix(1 0 0 1 756.4346 282.167)" fill="#FCEB76" font-family="'ArialMT'" font-size="14px">A: </text>
	<text id="XMLID_35_" transform="matrix(1 0 0 1 773.5518 282.167)" fill="#010101" font-family="'ArialMT'" font-size="12px">                     </text>
	<text id="XMLID_34_" transform="matrix(1 0 0 1 782.9922 282.167)" fill="#FFFFFF" font-family="'ArialMT'" font-size="14px">A</text>
	<text id="XMLID_33_" transform="matrix(1 0 0 1 792.3301 282.167)" fill="#010101" font-family="'ArialMT'" font-size="12px">                 </text>
	<path id="XMLID_32_" fill="#2F3A5B" stroke="#FFFFFF" stroke-width="2" stroke-miterlimit="10" d="M363.8,295.3h95c2.8,0,5,2.2,5,5
		v57c0,2.8-2.2,5-5,5h-95c-2.8,0-5-2.2-5-5v-57C358.8,297.5,361.1,295.3,363.8,295.3z"/>
	<text id="XMLID_31_" transform="matrix(1 0 0 1 365.691 380.501)" fill="#010101" font-family="'ArialMT'" font-size="12px">                     </text>
	<text id="XMLID_30_" transform="matrix(1 0 0 1 357.1324 380.501)" fill="#FCEB76" font-family="'ArialMT'" font-size="14px">A: </text>
	<text id="XMLID_29_" transform="matrix(1 0 0 1 374.2496 380.501)" fill="#010101" font-family="'ArialMT'" font-size="12px">                     </text>
	<text id="XMLID_28_" transform="matrix(1 0 0 1 383.69 380.501)" fill="#FFFFFF" font-family="'ArialMT'" font-size="14px">A</text>
	<text id="XMLID_27_" transform="matrix(1 0 0 1 393.0279 380.501)" fill="#010101" font-family="'ArialMT'" font-size="12px">                 </text>
	<path id="XMLID_26_" fill="#2F3A5B" stroke="#FFFFFF" stroke-width="2" stroke-miterlimit="10" d="M561.5,295.3h95c2.8,0,5,2.2,5,5
		v57c0,2.8-2.2,5-5,5h-95c-2.8,0-5-2.2-5-5v-57C556.5,297.5,558.7,295.3,561.5,295.3z"/>
	<text id="XMLID_25_" transform="matrix(1 0 0 1 564.9932 380.501)" fill="#010101" font-family="'ArialMT'" font-size="12px">                     </text>
	<text id="XMLID_24_" transform="matrix(1 0 0 1 556.4346 380.501)" fill="#FCEB76" font-family="'ArialMT'" font-size="14px">A: </text>
	<text id="XMLID_23_" transform="matrix(1 0 0 1 573.5518 380.501)" fill="#010101" font-family="'ArialMT'" font-size="12px">                     </text>
	<text id="XMLID_22_" transform="matrix(1 0 0 1 582.9922 380.501)" fill="#FFFFFF" font-family="'ArialMT'" font-size="14px">A</text>
	<text id="XMLID_21_" transform="matrix(1 0 0 1 592.3301 380.501)" fill="#010101" font-family="'ArialMT'" font-size="12px">                 </text>
	<path id="XMLID_20_" fill="#2F3A5B" stroke="#FFFFFF" stroke-width="2" stroke-miterlimit="10" d="M753.5,295.3h95c2.8,0,5,2.2,5,5
		v57c0,2.8-2.2,5-5,5h-95c-2.8,0-5-2.2-5-5v-57C748.5,297.5,750.7,295.3,753.5,295.3z"/>
	<text id="XMLID_19_" transform="matrix(1 0 0 1 764.9932 380.501)" fill="#010101" font-family="'ArialMT'" font-size="12px">                     </text>
	<text id="XMLID_18_" transform="matrix(1 0 0 1 756.4346 380.501)" fill="#FCEB76" font-family="'ArialMT'" font-size="14px">A: </text>
	<text id="XMLID_17_" transform="matrix(1 0 0 1 773.5518 380.501)" fill="#010101" font-family="'ArialMT'" font-size="12px">                     </text>
	<text id="XMLID_16_" transform="matrix(1 0 0 1 782.9922 380.501)" fill="#FFFFFF" font-family="'ArialMT'" font-size="14px">A</text>
	<text id="XMLID_15_" transform="matrix(1 0 0 1 792.3301 380.501)" fill="#010101" font-family="'ArialMT'" font-size="12px">                 </text>
	
		<image overflow="visible" enable-background="new    " width="109" height="71" id="XMLID_14_" xlink:href="images/goidienthoaiAvata.png"  transform="matrix(1 0 0 1 357.6665 196.666)">
	</image>
	
		<image overflow="visible" enable-background="new    " width="109" height="71" id="XMLID_13_" xlink:href="images/goidienthoaiAvata.png"  transform="matrix(1 0 0 1 357.6665 293.1885)">
	</image>
	
		<image overflow="visible" enable-background="new    " width="109" height="71" id="XMLID_12_" xlink:href="images/goidienthoaiAvata.png"  transform="matrix(1 0 0 1 554.8325 196.666)">
	</image>
	
		<image overflow="visible" enable-background="new    " width="109" height="71" id="XMLID_11_" xlink:href="images/goidienthoaiAvata.png"  transform="matrix(1 0 0 1 554.8325 293.1885)">
	</image>
	
		<image overflow="visible" enable-background="new    " width="109" height="71" id="XMLID_10_" xlink:href="images/goidienthoaiAvata.png"  transform="matrix(1 0 0 1 746.501 293.1875)">
	</image>
	
		<image overflow="visible" enable-background="new    " width="109" height="71" id="XMLID_9_" xlink:href="images/goidienthoaiAvata.png"  transform="matrix(1 0 0 1 746.834 196.666)">
	</image>
	<rect id="goidien1_event" x="356.8" y="196.9" fill="#FFFFFF" width="113.8" height="72"/>
	<rect id="goidien2_event" x="553.5" y="196.9" fill="#FFFFFF" width="113.8" height="72"/>
	<rect id="goidien3_event" x="746.5" y="197.2" fill="#FFFFFF" width="113.8" height="72"/>
	<rect id="goidien4_event" x="356.5" y="292.7" fill="#FFFFFF" width="113.8" height="72"/>
	<rect id="goidien5_event" x="554.5" y="292.7" fill="#FFFFFF" width="113.8" height="72"/>
	<rect id="goidien6_event" x="746.5" y="292.7" fill="#FFFFFF" width="113.8" height="72"/>
</g>
<path id="XMLID_8_" opacity="0.8" fill="none" stroke="#BAD2ED" stroke-width="3" stroke-miterlimit="10" enable-background="new    " d="
	M219.6,274.9c31.3,0,56.8,25.4,56.8,56.8c0,31.3-25.4,56.8-56.8,56.8s-56.8-25.4-56.8-56.8C162.9,300.3,188.3,274.9,219.6,274.9z"/>
<g id="goidienchonguoithan2">
	<path id="XMLID_7_" fill="#FFFFFF" stroke="#FFFFFF" stroke-width="3" stroke-miterlimit="10" d="M579,358H389c-6.6,0-12-5.4-12-12
		V224c0-6.6,5.4-12,12-12h190c6.6,0,12,5.4,12,12v122C591,352.6,585.6,358,579,358z"/>
	<path id="XMLID_6_" fill="#2F3A5B" stroke="#FFFFFF" stroke-width="4" stroke-miterlimit="10" d="M861,360H671c-6.6,0-12-5.4-12-12
		V226c0-6.6,5.4-12,12-12h190c6.6,0,12,5.4,12,12v122C873,354.6,867.6,360,861,360z"/>
	<text id="XMLID_5_" transform="matrix(1 0 0 1 726.8916 328.167)" fill="#FCEB76" font-family="'Arial-BoldMT'" font-size="100px">A</text>
	<text id="XMLID_4_" transform="matrix(1 0 0 1 670.7734 400)" fill="#FFFFFF" font-family="'ArialMT'" font-size="20px">Phương án lựa chọn</text>
	<text id="XMLID_3_" transform="matrix(1 0 0 1 392.9463 400)"><tspan x="0" y="0" fill="#FCEB76" font-family="'ArialMT'" font-size="20px">GV:</tspan><tspan x="34.5" y="0" fill="#FFFFFF" font-family="'ArialMT'" font-size="20px"> Phan Thế Công</tspan></text>
	<g>
		<defs>
			<path id="XMLID_1_" d="M576.8,356.5H391.3c-6.6,0-12-5.4-12-12V225.5c0-6.6,5.4-12,12-12h185.5c6.6,0,12,5.4,12,12v118.9
				C588.8,351.1,583.3,356.5,576.8,356.5z"/>
		</defs>
		<clipPath id="XMLID_65_">
			<use xlink:href="#XMLID_1_"  overflow="visible"/>
		</clipPath>
		<g clip-path="url(#XMLID_65_)">
			
				<image overflow="visible" width="109" height="71" id="XMLID_2_" xlink:href="images/goidienthoaiAvata.png"  transform="matrix(2.0734 0 0 2.0734 371 210.535)">
			</image>
		</g>
	</g>
</g>
</svg>
