<?xml version="1.0" encoding="utf-8"?>
<!-- Generator: Adobe Illustrator 19.0.0, SVG Export Plug-In . SVG Version: 6.00 Build 0)  -->
<svg version="1.1" id="Layer_1" xmlns="http://www.w3.org/2000/svg" xmlns:xlink="http://www.w3.org/1999/xlink" x="0px" y="0px"
	 viewBox="241 -211 1280 720" style="enable-background:new 241 -211 1280 720;" xml:space="preserve">
<style type="text/css">
	.st0{opacity:0.8;fill:#190751;stroke:#B8D2F1;stroke-width:3;stroke-miterlimit:10;enable-background:new    ;}
	.st1{opacity:0.8;fill:#140643;stroke:#B8D2F1;stroke-width:3;stroke-miterlimit:10;enable-background:new    ;}
	.st2{fill:#FFFFFF;}
	.st3{font-family:'ArialMT';}
	.st4{font-size:20px;}
	.st5{font-size:19px;}
	.st6{fill:#2F395B;stroke:#FFFFFF;stroke-width:2;stroke-miterlimit:10;}
	.st7{font-size:12px;}
	.st8{fill:#FDEC75;}
	.st9{font-size:14px;}
	.st10{fill:#FEFEFE;}
	.st11{opacity:0.8;fill:none;stroke:#B8D2F1;stroke-width:3;stroke-miterlimit:10;enable-background:new    ;}
	.st12{display:none;}
	.st13{display:inline;fill:#FFFFFF;stroke:#FFFFFF;stroke-width:3;stroke-miterlimit:10;}
	.st14{display:inline;fill:#2F395B;stroke:#FFFFFF;stroke-width:4;stroke-miterlimit:10;}
	.st15{display:inline;fill:#FDEC75;}
	.st16{font-family:'Arial-BoldMT';}
	.st17{font-size:100px;}
	.st18{display:inline;fill:#FFFFFF;}
	.st19{display:inline;}
</style>
<path class="st0" d="M354.5-59.3h789c16.6,0,30,13.4,30,30v229c0,16.6-13.4,30-30,30h-789c-16.6,0-30-13.4-30-30v-229
	C324.5-45.9,337.9-59.3,354.5-59.3z"/>
<path class="st1" d="M460.6,63.9c31.3,0,56.8,25.4,56.8,56.8s-25.4,56.8-56.8,56.8s-56.8-25.4-56.8-56.8S429.3,63.9,460.6,63.9z"/>
<g id="goidienchonguoithan">
	<text transform="matrix(1 0 0 1 352.7656 206)" class="st2 st3 st4">Gọi điện cho người thân</text>
	
		<image style="overflow:visible;enable-background:new    ;" width="86" height="86" xlink:href="images/goidienthoaiicon.png"  transform="matrix(1 0 0 1 417.1484 79.6875)">
	</image>
	<text transform="matrix(1 0 0 1 546 -23.333)" class="st2 st3 st5">CHỌN 1 TRONG NHỮNG NGƯỜI DƯỚI ĐÂY ĐỂ TRỢ GIÚP CHO BẠN</text>
	<path class="st6" d="M604.8-13.1h95c2.8,0,5,2.2,5,5v57c0,2.8-2.2,5-5,5h-95c-2.8,0-5-2.2-5-5v-57
		C599.8-10.8,602.1-13.1,604.8-13.1z"/>
	<text transform="matrix(1 0 0 1 605.9932 71.167)" class="st3 st7">                     </text>
	<text transform="matrix(1 0 0 1 597.4346 71.167)" class="st8 st3 st9">A: </text>
	<text transform="matrix(1 0 0 1 614.5518 71.167)" class="st3 st7">                     </text>
	<text transform="matrix(1 0 0 1 623.9922 71.167)" class="st10 st3 st9">A</text>
	<text transform="matrix(1 0 0 1 633.3301 71.167)" class="st3 st7">                 </text>
	<path class="st6" d="M802.5-13.1h95c2.8,0,5,2.2,5,5v57c0,2.8-2.2,5-5,5h-95c-2.8,0-5-2.2-5-5v-57
		C797.5-10.8,799.7-13.1,802.5-13.1z"/>
	<text transform="matrix(1 0 0 1 805.9932 71.167)" class="st3 st7">                     </text>
	<text transform="matrix(1 0 0 1 797.4346 71.167)" class="st8 st3 st9">A: </text>
	<text transform="matrix(1 0 0 1 814.5518 71.167)" class="st3 st7">                     </text>
	<text transform="matrix(1 0 0 1 823.9922 71.167)" class="st10 st3 st9">A</text>
	<text transform="matrix(1 0 0 1 833.3301 71.167)" class="st3 st7">                 </text>
	<path class="st6" d="M994.5-13.1h95c2.8,0,5,2.2,5,5v57c0,2.8-2.2,5-5,5h-95c-2.8,0-5-2.2-5-5v-57
		C989.5-10.8,991.7-13.1,994.5-13.1z"/>
	<text transform="matrix(1 0 0 1 1005.9932 71.167)" class="st3 st7">                     </text>
	<text transform="matrix(1 0 0 1 997.4346 71.167)" class="st8 st3 st9">A: </text>
	<text transform="matrix(1 0 0 1 1014.5518 71.167)" class="st3 st7">                     </text>
	<text transform="matrix(1 0 0 1 1023.9922 71.167)" class="st10 st3 st9">A</text>
	<text transform="matrix(1 0 0 1 1033.3301 71.167)" class="st3 st7">                 </text>
	<path class="st6" d="M604.8,84.3h95c2.8,0,5,2.2,5,5v57c0,2.8-2.2,5-5,5h-95c-2.8,0-5-2.2-5-5v-57
		C599.8,86.5,602.1,84.3,604.8,84.3z"/>
	<text transform="matrix(1 0 0 1 606.691 169.501)" class="st3 st7">                     </text>
	<text transform="matrix(1 0 0 1 598.1324 169.501)" class="st8 st3 st9">A: </text>
	<text transform="matrix(1 0 0 1 615.2496 169.501)" class="st3 st7">                     </text>
	<text transform="matrix(1 0 0 1 624.69 169.501)" class="st10 st3 st9">A</text>
	<text transform="matrix(1 0 0 1 634.0279 169.501)" class="st3 st7">                 </text>
	<path class="st6" d="M802.5,84.3h95c2.8,0,5,2.2,5,5v57c0,2.8-2.2,5-5,5h-95c-2.8,0-5-2.2-5-5v-57
		C797.5,86.5,799.7,84.3,802.5,84.3z"/>
	<text transform="matrix(1 0 0 1 805.9932 169.501)" class="st3 st7">                     </text>
	<text transform="matrix(1 0 0 1 797.4346 169.501)" class="st8 st3 st9">A: </text>
	<text transform="matrix(1 0 0 1 814.5518 169.501)" class="st3 st7">                     </text>
	<text transform="matrix(1 0 0 1 823.9922 169.501)" class="st10 st3 st9">A</text>
	<text transform="matrix(1 0 0 1 833.3301 169.501)" class="st3 st7">                 </text>
	<path class="st6" d="M994.5,84.3h95c2.8,0,5,2.2,5,5v57c0,2.8-2.2,5-5,5h-95c-2.8,0-5-2.2-5-5v-57
		C989.5,86.5,991.7,84.3,994.5,84.3z"/>
	<text transform="matrix(1 0 0 1 1005.9932 169.501)" class="st3 st7">                     </text>
	<text transform="matrix(1 0 0 1 997.4346 169.501)" class="st8 st3 st9">A: </text>
	<text transform="matrix(1 0 0 1 1014.5518 169.501)" class="st3 st7">                     </text>
	<text transform="matrix(1 0 0 1 1023.9922 169.501)" class="st10 st3 st9">A</text>
	<text transform="matrix(1 0 0 1 1033.3301 169.501)" class="st3 st7">                 </text>
	
		<image style="overflow:visible;enable-background:new    ;" width="109" height="71" xlink:href="images/goidienthoaiAvata.png"  transform="matrix(1 0 0 1 598.6665 -14.334)">
	</image>
	
		<image style="overflow:visible;enable-background:new    ;" width="109" height="71" xlink:href="images/goidienthoaiAvata.png"  transform="matrix(1 0 0 1 598.6665 82.1885)">
	</image>
	
		<image style="overflow:visible;enable-background:new    ;" width="109" height="71" xlink:href="images/goidienthoaiAvata.png"  transform="matrix(1 0 0 1 795.8325 -14.334)">
	</image>
	
		<image style="overflow:visible;enable-background:new    ;" width="109" height="71" xlink:href="images/goidienthoaiAvata.png"  transform="matrix(1 0 0 1 795.8325 82.1885)">
	</image>
	
		<image style="overflow:visible;enable-background:new    ;" width="109" height="71" xlink:href="images/goidienthoaiAvata.png"  transform="matrix(1 0 0 1 987.501 82.1875)">
	</image>
	
		<image style="overflow:visible;enable-background:new    ;" width="109" height="71" xlink:href="images/goidienthoaiAvata.png"  transform="matrix(1 0 0 1 987.834 -14.334)">
	</image>
	<rect id="goidien1_event" x="597.8" y="-14.1" class="st2" width="113.8" height="72"/>
	<rect id="goidien2_event" x="794.5" y="-14.1" class="st2" width="113.8" height="72"/>
	<rect id="goidien3_event" x="987.5" y="-13.8" class="st2" width="113.8" height="72"/>
	<rect id="goidien4_event" x="597.5" y="81.7" class="st2" width="113.8" height="72"/>
	<rect id="goidien5_event" x="795.5" y="81.7" class="st2" width="113.8" height="72"/>
	<rect id="goidien6_event" x="987.5" y="81.7" class="st2" width="113.8" height="72"/>
</g>
<path class="st11" d="M460.6,63.9c31.3,0,56.8,25.4,56.8,56.8c0,31.3-25.4,56.8-56.8,56.8s-56.8-25.4-56.8-56.8
	C403.9,89.3,429.3,63.9,460.6,63.9z"/>
<g id="goidienchonguoithan2" class="st12">
	<path class="st13" d="M820,147H630c-6.6,0-12-5.4-12-12V13c0-6.6,5.4-12,12-12h190c6.6,0,12,5.4,12,12v122
		C832,141.6,826.6,147,820,147z"/>
	<path class="st14" d="M1102,149H912c-6.6,0-12-5.4-12-12V15c0-6.6,5.4-12,12-12h190c6.6,0,12,5.4,12,12v122
		C1114,143.6,1108.6,149,1102,149z"/>
	<text transform="matrix(1 0 0 1 967.8916 117.167)" class="st15 st16 st17">A</text>
	<text transform="matrix(1 0 0 1 911.7734 189)" class="st18 st3 st4">Phương án lựa chọn</text>
	<text transform="matrix(1 0 0 1 633.9463 189)" class="st19"><tspan x="0" y="0" class="st8 st3 st4">GV:</tspan><tspan x="34.5" y="0" class="st2 st3 st4"> Phan Thế Công</tspan></text>
	<g class="st19">
		<defs>
			<path id="SVGID_1_" d="M817.8,145.5H632.3c-6.6,0-12-5.4-12-12V14.5c0-6.6,5.4-12,12-12h185.5c6.6,0,12,5.4,12,12v118.9
				C829.8,140.1,824.3,145.5,817.8,145.5z"/>
		</defs>
		<clipPath id="SVGID_2_">
			<use xlink:href="#SVGID_1_"  style="overflow:visible;"/>
		</clipPath>
		<g style="clip-path:url(#SVGID_2_);">
			
				<image style="overflow:visible;" width="109" height="71" xlink:href="images/goidienthoaiAvata.png"  transform="matrix(2.0734 0 0 2.0734 612 -0.465)">
			</image>
		</g>
	</g>
</g>
</svg>
