<?xml version="1.0" encoding="utf-8"?>
<!-- Generator: Adobe Illustrator 19.0.0, SVG Export Plug-In . SVG Version: 6.00 Build 0)  -->
<svg version="1.1" id="Layer_1" xmlns="http://www.w3.org/2000/svg" xmlns:xlink="http://www.w3.org/1999/xlink" x="0px" y="0px"
	 viewBox="241 -211 1280 720" style="enable-background:new 241 -211 1280 720;" xml:space="preserve">
<style type="text/css">
	.st0{fill:#FFFFFF;}
	.st1{font-family:'ArialMT';}
	.st2{font-size:20px;}
	.st3{font-size:19px;}
	.st4{fill:#2F395B;stroke:#FFFFFF;stroke-width:2;stroke-miterlimit:10;}
	.st5{font-size:12px;}
	.st6{fill:#FDEC75;}
	.st7{font-size:14px;}
	.st8{fill:#FEFEFE;}
</style>
<image style="overflow:visible;" width="1280" height="720" xlink:href="images/gamebackground.png"  transform="matrix(1 0 0 1 241 -211)">
</image>
<g id="goidienchonguoithan">
	<text transform="matrix(1 0 0 1 352.7656 206)" class="st0 st1 st2">Gọi điện cho người thân</text>
	
		<image style="overflow:visible;enable-background:new    ;" width="86" height="86" xlink:href="images/goidienthoaiicon.png"  transform="matrix(1 0 0 1 417.1484 79.6875)">
	</image>
	<text transform="matrix(1 0 0 1 546 -23.333)" class="st0 st1 st3">CHỌN 1 TRONG NHỮNG NGƯỜI DƯỚI ĐÂY ĐỂ TRỢ GIÚP CHO BẠN</text>
	<path class="st4" d="M604.8-13.1h95c2.8,0,5,2.2,5,5v57c0,2.8-2.2,5-5,5h-95c-2.8,0-5-2.2-5-5v-57
		C599.8-10.8,602.1-13.1,604.8-13.1z"/>
	<text transform="matrix(1 0 0 1 605.9932 71.167)" class="st1 st5">                     </text>
	<text transform="matrix(1 0 0 1 597.4346 71.167)" class="st6 st1 st7">A: </text>
	<text transform="matrix(1 0 0 1 614.5518 71.167)" class="st1 st5">                     </text>
	<text transform="matrix(1 0 0 1 623.9922 71.167)" class="st8 st1 st7">A</text>
	<text transform="matrix(1 0 0 1 633.3301 71.167)" class="st1 st5">                 </text>
	<path class="st4" d="M802.5-13.1h95c2.8,0,5,2.2,5,5v57c0,2.8-2.2,5-5,5h-95c-2.8,0-5-2.2-5-5v-57
		C797.5-10.8,799.7-13.1,802.5-13.1z"/>
	<text transform="matrix(1 0 0 1 805.9932 71.167)" class="st1 st5">                     </text>
	<text transform="matrix(1 0 0 1 797.4346 71.167)" class="st6 st1 st7">A: </text>
	<text transform="matrix(1 0 0 1 814.5518 71.167)" class="st1 st5">                     </text>
	<text transform="matrix(1 0 0 1 823.9922 71.167)" class="st8 st1 st7">A</text>
	<text transform="matrix(1 0 0 1 833.3301 71.167)" class="st1 st5">                 </text>
	<path class="st4" d="M994.5-13.1h95c2.8,0,5,2.2,5,5v57c0,2.8-2.2,5-5,5h-95c-2.8,0-5-2.2-5-5v-57
		C989.5-10.8,991.7-13.1,994.5-13.1z"/>
	<text transform="matrix(1 0 0 1 1005.9932 71.167)" class="st1 st5">                     </text>
	<text transform="matrix(1 0 0 1 997.4346 71.167)" class="st6 st1 st7">A: </text>
	<text transform="matrix(1 0 0 1 1014.5518 71.167)" class="st1 st5">                     </text>
	<text transform="matrix(1 0 0 1 1023.9922 71.167)" class="st8 st1 st7">A</text>
	<text transform="matrix(1 0 0 1 1033.3301 71.167)" class="st1 st5">                 </text>
	<path class="st4" d="M604.8,84.3h95c2.8,0,5,2.2,5,5v57c0,2.8-2.2,5-5,5h-95c-2.8,0-5-2.2-5-5v-57
		C599.8,86.5,602.1,84.3,604.8,84.3z"/>
	<text transform="matrix(1 0 0 1 606.691 169.501)" class="st1 st5">                     </text>
	<text transform="matrix(1 0 0 1 598.1324 169.501)" class="st6 st1 st7">A: </text>
	<text transform="matrix(1 0 0 1 615.2496 169.501)" class="st1 st5">                     </text>
	<text transform="matrix(1 0 0 1 624.69 169.501)" class="st8 st1 st7">A</text>
	<text transform="matrix(1 0 0 1 634.0279 169.501)" class="st1 st5">                 </text>
	<path class="st4" d="M802.5,84.3h95c2.8,0,5,2.2,5,5v57c0,2.8-2.2,5-5,5h-95c-2.8,0-5-2.2-5-5v-57
		C797.5,86.5,799.7,84.3,802.5,84.3z"/>
	<text transform="matrix(1 0 0 1 805.9932 169.501)" class="st1 st5">                     </text>
	<text transform="matrix(1 0 0 1 797.4346 169.501)" class="st6 st1 st7">A: </text>
	<text transform="matrix(1 0 0 1 814.5518 169.501)" class="st1 st5">                     </text>
	<text transform="matrix(1 0 0 1 823.9922 169.501)" class="st8 st1 st7">A</text>
	<text transform="matrix(1 0 0 1 833.3301 169.501)" class="st1 st5">                 </text>
	<path class="st4" d="M994.5,84.3h95c2.8,0,5,2.2,5,5v57c0,2.8-2.2,5-5,5h-95c-2.8,0-5-2.2-5-5v-57
		C989.5,86.5,991.7,84.3,994.5,84.3z"/>
	<text transform="matrix(1 0 0 1 1005.9932 169.501)" class="st1 st5">                     </text>
	<text transform="matrix(1 0 0 1 997.4346 169.501)" class="st6 st1 st7">A: </text>
	<text transform="matrix(1 0 0 1 1014.5518 169.501)" class="st1 st5">                     </text>
	<text transform="matrix(1 0 0 1 1023.9922 169.501)" class="st8 st1 st7">A</text>
	<text transform="matrix(1 0 0 1 1033.3301 169.501)" class="st1 st5">                 </text>
	
		<image style="overflow:visible;enable-background:new    ;" width="109" height="71" xlink:href="images/goidienthoaiAvata.png"  transform="matrix(1 0 0 1 598.6665 -14.334)">
	</image>
	
		<image style="overflow:visible;enable-background:new    ;" width="109" height="71" xlink:href="images/goidienthoaiAvata.png"  transform="matrix(1 0 0 1 598.6665 82.1885)">
	</image>
	
		<image style="overflow:visible;enable-background:new    ;" width="109" height="71" xlink:href="images/goidienthoaiAvata.png"  transform="matrix(1 0 0 1 795.8325 -14.334)">
	</image>
	
		<image style="overflow:visible;enable-background:new    ;" width="109" height="71" xlink:href="images/goidienthoaiAvata.png"  transform="matrix(1 0 0 1 795.8325 82.1885)">
	</image>
	
		<image style="overflow:visible;enable-background:new    ;" width="109" height="71" xlink:href="images/goidienthoaiAvata.png"  transform="matrix(1 0 0 1 987.501 82.1875)">
	</image>
	
		<image style="overflow:visible;enable-background:new    ;" width="109" height="71" xlink:href="images/goidienthoaiAvata.png"  transform="matrix(1 0 0 1 987.834 -14.334)">
	</image>
	  <path opacity="0.8" fill-rule="evenodd" clip-rule="evenodd" fill="none" stroke="#B8D2F1" stroke-width="3" stroke-miterlimit="10" d="
		M219.632,274.938c31.341,0,56.75,25.408,56.75,56.75c0,31.343-25.408,56.751-56.75,56.751c-31.342,0-56.75-25.408-56.75-56.751
		C162.882,300.346,188.29,274.938,219.632,274.938z" />
</g>
</svg>
