<?xml version="1.0" encoding="utf-8"?>
<!-- Generator: Adobe Illustrator 19.0.0, SVG Export Plug-In . SVG Version: 6.00 Build 0)  -->
<svg version="1.1" id="Layer_1" xmlns="http://www.w3.org/2000/svg" xmlns:xlink="http://www.w3.org/1999/xlink" x="0px" y="0px"
	 viewBox="0 0 798 298" enable-background="new 0 0 798 298" xml:space="preserve">
<path id="XMLID_92_" opacity="0.2" fill="#2B59A8" enable-background="new    " d="M811-25.5V309"/>
<polyline id="XMLID_90_" opacity="0.3" fill="#010101" enable-background="new    " points="3.5,2.5 771.5,2.5 771.5,27 3.5,27 "/>
<line id="XMLID_88_" opacity="0.6" fill="none" stroke="#FFFFFF" stroke-miterlimit="10" enable-background="new    " x1="72" y1="2.5" x2="72" y2="300.5"/>
<line id="XMLID_87_" opacity="0.6" fill="none" stroke="#FFFFFF" stroke-miterlimit="10" enable-background="new    " x1="379.5" y1="2" x2="379.5" y2="300"/>
<line id="XMLID_86_" opacity="0.6" fill="none" stroke="#FFFFFF" stroke-miterlimit="10" enable-background="new    " x1="468" y1="2.5" x2="468" y2="300.5"/>
<line id="XMLID_85_" opacity="0.6" fill="none" stroke="#FFFFFF" stroke-miterlimit="10" enable-background="new    " x1="771.5" y1="2" x2="771.5" y2="300"/>
<text id="XMLID_84_" transform="matrix(1 0 0 1 17.5 23.021)" fill="#010101" font-family="'ArialMT'" font-size="12px">                     </text>
<text id="XMLID_83_" transform="matrix(1 0 0 1 17.5 23.021)" fill="#FFFFFF" font-family="'Arial-BoldMT'" font-size="16px">Hạng</text>
<text id="XMLID_82_" transform="matrix(1 0 0 1 57.5 23.021)" fill="#010101" font-family="'ArialMT'" font-size="12px">                     </text>
<text id="XMLID_81_" transform="matrix(1 0 0 1 117.5 23.021)" fill="#FFFFFF" font-family="'Arial-BoldMT'" font-size="16px">Họ &amp; Tên</text>
<text id="XMLID_80_" transform="matrix(1 0 0 1 187.7188 23.021)" fill="#010101" font-family="'ArialMT'" font-size="12px">                     </text>
<text id="XMLID_79_" transform="matrix(1 0 0 1 186.391 23.021)" fill="#FFFFFF" font-family="'Arial-BoldMT'" font-size="16px" letter-spacing="6"> </text>
<text id="XMLID_78_" transform="matrix(1 0 0 1 196.8363 23.021)" fill="#010101" font-family="'ArialMT'" font-size="12px">                     </text>
<text id="XMLID_77_" transform="matrix(1 0 0 1 402.5 23.021)" fill="#FFFFFF" font-family="'Arial-BoldMT'" font-size="16px"> Lớp</text>
<text id="XMLID_76_" transform="matrix(1 0 0 1 437.8672 23.021)" fill="#010101" font-family="'ArialMT'" font-size="12px">                     </text>
<text id="XMLID_75_" transform="matrix(1 0 0 1 665.5 23.021)" fill="#FFFFFF" font-family="'Arial-BoldMT'" font-size="16px"> LTTNPoint</text>
<text id="XMLID_74_" transform="matrix(1 0 0 1 749.625 23.021)" fill="#010101" font-family="'ArialMT'" font-size="12px">                 </text>
<text id="XMLID_72_" transform="matrix(1 0 0 1 27 60.021)" fill="#010101" font-family="'ArialMT'" font-size="12px">                     </text>
<text id="XMLID_71_" transform="matrix(1 0 0 1 27 60.021)" fill="#FCEB76" font-family="'Arial-BoldMT'" font-size="16px">01</text>
<text id="XMLID_70_" transform="matrix(1 0 0 1 44.7969 60.021)" fill="#010101" font-family="'ArialMT'" font-size="12px">                     </text>
<text id="XMLID_69_" transform="matrix(1 0 0 1 27 106.021)" fill="#FCEB76" font-family="'Arial-BoldMT'" font-size="16px">02</text>
<text id="XMLID_68_" transform="matrix(1 0 0 1 44.7969 106.021)" fill="#010101" font-family="'ArialMT'" font-size="12px">                     </text>
<text id="XMLID_67_" transform="matrix(1 0 0 1 27 152.021)" fill="#FCEB76" font-family="'Arial-BoldMT'" font-size="16px">03</text>
<text id="XMLID_66_" transform="matrix(1 0 0 1 44.7969 152.021)" fill="#010101" font-family="'ArialMT'" font-size="12px">                     </text>
<text id="XMLID_65_" transform="matrix(1 0 0 1 27 198.021)" fill="#FFFFFF" font-family="'Arial-BoldMT'" font-size="16px">04</text>
<text id="XMLID_64_" transform="matrix(1 0 0 1 44.7969 198.021)" fill="#010101" font-family="'ArialMT'" font-size="12px">                     </text>
<text id="XMLID_63_" transform="matrix(1 0 0 1 27 244.021)" fill="#FFFFFF" font-family="'Arial-BoldMT'" font-size="16px">05</text>
<text id="XMLID_62_" transform="matrix(1 0 0 1 44.7969 244.021)" fill="#010101" font-family="'ArialMT'" font-size="12px">                     </text>
<text id="XMLID_60_" transform="matrix(1 0 0 1 44.7969 290.021)" fill="#010101" font-family="'ArialMT'" font-size="12px">                 </text>
<text id="XMLID_58_" transform="matrix(1 0 0 1 116 59.021)" fill="#010101" font-family="'ArialMT'" font-size="12px">                     </text>
<text id="XMLID_57_" transform="matrix(1 0 0 1 116 59.021)" fill="#FFFFFF" font-family="'ArialMT'" font-size="16px">Nguyễn Văn Anh</text>
<text id="XMLID_56_" transform="matrix(1 0 0 1 236.0938 59.021)" fill="#010101" font-family="'ArialMT'" font-size="12px">                     </text>
<text id="XMLID_55_" transform="matrix(1 0 0 1 116 105.021)" fill="#FFFFFF" font-family="'ArialMT'" font-size="16px">Nguyễn Hồng Thơm</text>
<text id="XMLID_54_" transform="matrix(1 0 0 1 260.4922 105.021)" fill="#010101" font-family="'ArialMT'" font-size="12px">                     </text>
<text id="XMLID_53_" transform="matrix(1 0 0 1 116 151.021)" fill="#FFFFFF" font-family="'ArialMT'" font-size="16px">Nguyễn Tuấn Anh</text>
<text id="XMLID_52_" transform="matrix(1 0 0 1 243.2109 151.021)" fill="#010101" font-family="'ArialMT'" font-size="12px">                     </text>
<text id="XMLID_51_" transform="matrix(1 0 0 1 116 197.021)" fill="#FFFFFF" font-family="'ArialMT'" font-size="16px">Lê Xuân Công</text>
<text id="XMLID_50_" transform="matrix(1 0 0 1 218.3047 197.021)" fill="#010101" font-family="'ArialMT'" font-size="12px">                     </text>
<text id="XMLID_49_" transform="matrix(1 0 0 1 116 243.021)" fill="#FFFFFF" font-family="'ArialMT'" font-size="16px">Trần Thị Phương</text>
<text id="XMLID_48_" transform="matrix(1 0 0 1 237.7031 243.021)" fill="#010101" font-family="'ArialMT'" font-size="12px">                     </text>
<text id="XMLID_47_" transform="matrix(1 0 0 1 116 289.021)" fill="#FFFFFF" font-family="'ArialMT'" font-size="16px">Trần Thế Giang</text>
<text id="XMLID_46_" transform="matrix(1 0 0 1 227.1719 289.021)" fill="#010101" font-family="'ArialMT'" font-size="12px">                 </text>
<text id="XMLID_44_" transform="matrix(1 0 0 1 398 60.021)" fill="#010101" font-family="'ArialMT'" font-size="12px">                     </text>
<text id="XMLID_43_" transform="matrix(1 0 0 1 398 60.021)" fill="#FFFFFF" font-family="'ArialMT'" font-size="16px">QTH01</text>
<text id="XMLID_42_" transform="matrix(1 0 0 1 449.5703 60.021)" fill="#010101" font-family="'ArialMT'" font-size="12px">                     </text>
<text id="XMLID_41_" transform="matrix(1 0 0 1 398 106.021)" fill="#FFFFFF" font-family="'ArialMT'" font-size="16px">QTH03</text>
<text id="XMLID_40_" transform="matrix(1 0 0 1 449.5703 106.021)" fill="#010101" font-family="'ArialMT'" font-size="12px">                     </text>
<text id="XMLID_39_" transform="matrix(1 0 0 1 398 152.021)" fill="#FFFFFF" font-family="'ArialMT'" font-size="16px">QTH03</text>
<text id="XMLID_38_" transform="matrix(1 0 0 1 449.5703 152.021)" fill="#010101" font-family="'ArialMT'" font-size="12px">                     </text>
<text id="XMLID_37_" transform="matrix(1 0 0 1 398 198.021)" fill="#FFFFFF" font-family="'ArialMT'" font-size="16px">QTH05</text>
<text id="XMLID_36_" transform="matrix(1 0 0 1 449.5703 198.021)" fill="#010101" font-family="'ArialMT'" font-size="12px">                     </text>
<text id="XMLID_35_" transform="matrix(1 0 0 1 398 244.021)" fill="#FFFFFF" font-family="'ArialMT'" font-size="16px">QTH02</text>
<text id="XMLID_34_" transform="matrix(1 0 0 1 449.5703 244.021)" fill="#010101" font-family="'ArialMT'" font-size="12px">                     </text>
<text id="XMLID_33_" transform="matrix(1 0 0 1 398 290.021)" fill="#FFFFFF" font-family="'ArialMT'" font-size="16px">QTH10</text>
<text id="XMLID_32_" transform="matrix(1 0 0 1 449.5703 290.021)" fill="#010101" font-family="'ArialMT'" font-size="12px">                 </text>
<text id="XMLID_30_" transform="matrix(1 0 0 1 667.5234 59.021)" fill="#010101" font-family="'ArialMT'" font-size="12px">                     </text>
<text id="XMLID_29_" transform="matrix(1 0 0 1 667.5234 59.021)" fill="#FFFFFF" font-family="'ArialMT'" font-size="16px">235.000.000</text>
<text id="XMLID_28_" transform="matrix(1 0 0 1 756.4999 59.021)" fill="#010101" font-family="'ArialMT'" font-size="12px">                     </text>
<text id="XMLID_27_" transform="matrix(1 0 0 1 667.5234 105.021)" fill="#FFFFFF" font-family="'ArialMT'" font-size="16px">235.000.000</text>
<text id="XMLID_26_" transform="matrix(1 0 0 1 756.4999 105.021)" fill="#010101" font-family="'ArialMT'" font-size="12px">                     </text>
<text id="XMLID_25_" transform="matrix(1 0 0 1 667.5234 151.021)" fill="#FFFFFF" font-family="'ArialMT'" font-size="16px">128.000.000</text>
<text id="XMLID_24_" transform="matrix(1 0 0 1 756.4999 151.021)" fill="#010101" font-family="'ArialMT'" font-size="12px">                     </text>
<text id="XMLID_23_" transform="matrix(1 0 0 1 667.5234 197.021)" fill="#FFFFFF" font-family="'ArialMT'" font-size="16px">120.000.000</text>
<text id="XMLID_22_" transform="matrix(1 0 0 1 756.4999 197.021)" fill="#010101" font-family="'ArialMT'" font-size="12px">                     </text>
<text id="XMLID_21_" transform="matrix(1 0 0 1 667.5234 243.021)" fill="#FFFFFF" font-family="'ArialMT'" font-size="16px">104.000.000</text>
<text id="XMLID_20_" transform="matrix(1 0 0 1 756.4999 243.021)" fill="#010101" font-family="'ArialMT'" font-size="12px">                     </text>
<text id="XMLID_19_" transform="matrix(1 0 0 1 676.4214 289.021)" fill="#FFFFFF" font-family="'ArialMT'" font-size="16px">99.000.000</text>
<text id="XMLID_18_" transform="matrix(1 0 0 1 756.4995 289.021)" fill="#010101" font-family="'ArialMT'" font-size="12px">                 </text>
</svg>
