<?xml version="1.0" encoding="utf-8"?>
<!-- Generator: Adobe Illustrator 19.0.0, SVG Export Plug-In . SVG Version: 6.00 Build 0)  -->
<svg version="1.1" id="Layer_1" xmlns="http://www.w3.org/2000/svg" xmlns:xlink="http://www.w3.org/1999/xlink" x="0px" y="0px"
	 viewBox="0 0 1280 720" enable-background="new 0 0 1280 720" xml:space="preserve">
<g id="groupbangxephang">
	
		<path id="XMLID_112_" opacity="0.85" fill="#0A1534" stroke="#FAED26" stroke-width="3" stroke-miterlimit="10" enable-background="new    " d="
		M98.5,149.5h799c16.6,0,30,13.4,30,30v480c0,16.6-13.4,30-30,30h-799c-16.6,0-30-13.4-30-30v-480C68.5,162.9,81.9,149.5,98.5,149.5
		z"/>
	<rect id="XMLID_111_" x="93.5" y="210.5" opacity="0.5" fill="#2B59A8" enable-background="new    " width="817" height="45"/>
	<text id="XMLID_110_" transform="matrix(1 0 0 1 121.4141 241)" fill="#010101" font-family="'Arial'" font-size="12px">                     </text>
	<text id="XMLID_109_" transform="matrix(1 0 0 1 121.4141 241)" fill="#FFFFFF" font-family="'Arial'" font-size="20px">Hạng: </text>
	<text id="XMLID_108_" transform="matrix(1 0 0 1 180.3399 241)" fill="#010101" font-family="'Arial'" font-size="12px">                     </text>
	<text id="XMLID_107_" transform="matrix(1 0 0 1 180.3401 241)" fill="#FCEB76" font-family="'Arial'" font-size="20px">25</text>
	<text id="XMLID_106_" transform="matrix(1 0 0 1 202.5862 241)" fill="#010101" font-family="'Arial'" font-size="12px">                 </text>
	<text id="XMLID_104_" transform="matrix(1 0 0 1 346.5313 241)" fill="#010101" font-family="'Arial'" font-size="12px">                     </text>
	<text id="XMLID_103_" transform="matrix(1 0 0 1 346.5313 241)" fill="#FFFFFF" font-family="'Arial'" font-size="20px">Lớp: </text>
	<text id="XMLID_102_" transform="matrix(1 0 0 1 393.0059 241)" fill="#010101" font-family="'Arial'" font-size="12px">                     </text>
	<text id="XMLID_101_" transform="matrix(1 0 0 1 393.0063 241)" fill="#FCEB76" font-family="'Arial'" font-size="20px">QTH10</text>
	<text id="XMLID_100_" transform="matrix(1 0 0 1 457.4692 241)" fill="#010101" font-family="'Arial'" font-size="12px">                 </text>
	<text id="XMLID_98_" transform="matrix(1 0 0 1 663.1631 241)" fill="#010101" font-family="'Arial'" font-size="12px">                     </text>
	<text id="XMLID_97_" transform="matrix(1 0 0 1 619.1631 241)" fill="#FFFFFF" font-family="'Arial'" font-size="20px">Tổng LTTNPoint: </text>
	<text id="XMLID_96_" transform="matrix(1 0 0 1 768.3779 241)" fill="#010101" font-family="'Arial'" font-size="12px">                     </text>
	<text id="XMLID_95_" transform="matrix(1 0 0 1 769.8621 241)" fill="#FCEB76" font-family="'Arial'" font-size="20px">1.000.000</text>
	<text id="XMLID_94_" transform="matrix(1 0 0 1 858.8367 241)" fill="#010101" font-family="'Arial'" font-size="12px">                 </text>
	<path id="XMLID_92_" opacity="0.2" fill="#2B59A8" enable-background="new    " d="M910,613c0,1.1-0.9,2-2,2H98.5c-1.1,0-2-0.9-2-2
		V278.5c0-1.1,0.9-2,2-2H908c1.1,0,2,0.9,2,2V613z"/>
	<text id="XMLID_91_" transform="matrix(1 0 0 1 398.6484 296.5)" fill="#FCEB76" font-family="'Arial'" font-weight="bold" font-size="16px">BẢNG XẾP HẠNG TOP 10</text>
	<rect id="XMLID_90_" x="102.5" y="306.5" opacity="0.3" fill="#010101" enable-background="new    " width="768" height="24.5"/>
	
		<line id="XMLID_89_" opacity="0.6" fill="none" stroke="#FFFFFF" stroke-miterlimit="10" enable-background="new    " x1="102.5" y1="306.5" x2="102.5" y2="604.5"/>
	
		<line id="XMLID_88_" opacity="0.6" fill="none" stroke="#FFFFFF" stroke-miterlimit="10" enable-background="new    " x1="171" y1="306.5" x2="171" y2="604.5"/>
	
		<line id="XMLID_87_" opacity="0.6" fill="none" stroke="#FFFFFF" stroke-miterlimit="10" enable-background="new    " x1="478.5" y1="306" x2="478.5" y2="604"/>
	
		<line id="XMLID_86_" opacity="0.6" fill="none" stroke="#FFFFFF" stroke-miterlimit="10" enable-background="new    " x1="567" y1="306.5" x2="567" y2="604.5"/>
	
		<line id="XMLID_85_" opacity="0.6" fill="none" stroke="#FFFFFF" stroke-miterlimit="10" enable-background="new    " x1="870.5" y1="306" x2="870.5" y2="604"/>
	<text id="XMLID_84_" transform="matrix(1 0 0 1 116.5 327)" fill="#010101" font-family="'Arial'" font-size="12px">                     </text>
	<text id="XMLID_83_" transform="matrix(1 0 0 1 116.5 327)" fill="#FFFFFF" font-family="'Arial'" font-weight="bold" font-size="16px">Hạng</text>
	<text id="XMLID_82_" transform="matrix(1 0 0 1 156.5 327)" fill="#010101" font-family="'Arial'" font-size="12px">                     </text>
	<text id="XMLID_81_" transform="matrix(1 0 0 1 216.5 327)" fill="#FFFFFF" font-family="'Arial'" font-weight="bold" font-size="16px">Họ &amp; Tên</text>
	<text id="XMLID_80_" transform="matrix(1 0 0 1 286.7188 327)" fill="#010101" font-family="'Arial'" font-size="12px">                     </text>
	
		<text id="XMLID_79_" transform="matrix(1 0 0 1 285.391 327)" fill="#FFFFFF" font-family="'Arial'" font-weight="bold" font-size="16px" letter-spacing="6"> </text>
	<text id="XMLID_78_" transform="matrix(1 0 0 1 295.8363 327)" fill="#010101" font-family="'Arial'" font-size="12px">                     </text>
	<text id="XMLID_77_" transform="matrix(1 0 0 1 501.5 327)" fill="#FFFFFF" font-family="'Arial'" font-weight="bold" font-size="16px"> Lớp</text>
	<text id="XMLID_76_" transform="matrix(1 0 0 1 536.8672 327)" fill="#010101" font-family="'Arial'" font-size="12px">                     </text>
	<text id="XMLID_75_" transform="matrix(1 0 0 1 764.5 327)" fill="#FFFFFF" font-family="'Arial'" font-weight="bold" font-size="16px"> LTTNPoint</text>
	<text id="XMLID_74_" transform="matrix(1 0 0 1 848.625 327)" fill="#010101" font-family="'Arial'" font-size="12px">                 </text>
	<text id="XMLID_72_" transform="matrix(1 0 0 1 126 364)" fill="#010101" font-family="'Arial'" font-size="12px">                     </text>
	<text id="XMLID_71_" transform="matrix(1 0 0 1 126 364)" fill="#FCEB76" font-family="'Arial'" font-weight="bold" font-size="16px">01</text>
	<text id="XMLID_70_" transform="matrix(1 0 0 1 143.7969 364)" fill="#010101" font-family="'Arial'" font-size="12px">                     </text>
	<text id="XMLID_69_" transform="matrix(1 0 0 1 126 410)" fill="#FCEB76" font-family="'Arial'" font-weight="bold" font-size="16px">02</text>
	<text id="XMLID_68_" transform="matrix(1 0 0 1 143.7969 410)" fill="#010101" font-family="'Arial'" font-size="12px">                     </text>
	<text id="XMLID_67_" transform="matrix(1 0 0 1 126 456)" fill="#FCEB76" font-family="'Arial'" font-weight="bold" font-size="16px">03</text>
	<text id="XMLID_66_" transform="matrix(1 0 0 1 143.7969 456)" fill="#010101" font-family="'Arial'" font-size="12px">                     </text>
	<text id="XMLID_65_" transform="matrix(1 0 0 1 126 502)" fill="#FFFFFF" font-family="'Arial'" font-weight="bold" font-size="16px">04</text>
	<text id="XMLID_64_" transform="matrix(1 0 0 1 143.7969 502)" fill="#010101" font-family="'Arial'" font-size="12px">                     </text>
	<text id="XMLID_63_" transform="matrix(1 0 0 1 126 548)" fill="#FFFFFF" font-family="'Arial'" font-weight="bold" font-size="16px">05</text>
	<text id="XMLID_62_" transform="matrix(1 0 0 1 143.7969 548)" fill="#010101" font-family="'Arial'" font-size="12px">                     </text>
	<text id="XMLID_61_" transform="matrix(1 0 0 1 126 594)" fill="#FFFFFF" font-family="'Arial'" font-weight="bold" font-size="16px">06</text>
	<text id="XMLID_60_" transform="matrix(1 0 0 1 143.7969 594)" fill="#010101" font-family="'Arial'" font-size="12px">                 </text>
	<text id="XMLID_58_" transform="matrix(1 0 0 1 215 363)" fill="#010101" font-family="'Arial'" font-size="12px">                     </text>
	<text id="XMLID_57_" transform="matrix(1 0 0 1 215 363)" fill="#FFFFFF" font-family="'Arial'" font-size="16px">Nguyễn Văn Anh</text>
	<text id="XMLID_56_" transform="matrix(1 0 0 1 335.0938 363)" fill="#010101" font-family="'Arial'" font-size="12px">                     </text>
	<text id="XMLID_55_" transform="matrix(1 0 0 1 215 409)" fill="#FFFFFF" font-family="'Arial'" font-size="16px">Nguyễn Hồng Thơm</text>
	<text id="XMLID_54_" transform="matrix(1 0 0 1 359.4922 409)" fill="#010101" font-family="'Arial'" font-size="12px">                     </text>
	<text id="XMLID_53_" transform="matrix(1 0 0 1 215 455)" fill="#FFFFFF" font-family="'Arial'" font-size="16px">Nguyễn Tuấn Anh</text>
	<text id="XMLID_52_" transform="matrix(1 0 0 1 342.2109 455)" fill="#010101" font-family="'Arial'" font-size="12px">                     </text>
	<text id="XMLID_51_" transform="matrix(1 0 0 1 215 501)" fill="#FFFFFF" font-family="'Arial'" font-size="16px">Lê Xuân Công</text>
	<text id="XMLID_50_" transform="matrix(1 0 0 1 317.3047 501)" fill="#010101" font-family="'Arial'" font-size="12px">                     </text>
	<text id="XMLID_49_" transform="matrix(1 0 0 1 215 547)" fill="#FFFFFF" font-family="'Arial'" font-size="16px">Trần Thị Phương</text>
	<text id="XMLID_48_" transform="matrix(1 0 0 1 336.7031 547)" fill="#010101" font-family="'Arial'" font-size="12px">                     </text>
	<text id="XMLID_47_" transform="matrix(1 0 0 1 215 593)" fill="#FFFFFF" font-family="'Arial'" font-size="16px">Trần Thế Giang</text>
	<text id="XMLID_46_" transform="matrix(1 0 0 1 326.1719 593)" fill="#010101" font-family="'Arial'" font-size="12px">                 </text>
	<text id="XMLID_44_" transform="matrix(1 0 0 1 497 364)" fill="#010101" font-family="'Arial'" font-size="12px">                     </text>
	<text id="XMLID_43_" transform="matrix(1 0 0 1 497 364)" fill="#FFFFFF" font-family="'Arial'" font-size="16px">QTH01</text>
	<text id="XMLID_42_" transform="matrix(1 0 0 1 548.5703 364)" fill="#010101" font-family="'Arial'" font-size="12px">                     </text>
	<text id="XMLID_41_" transform="matrix(1 0 0 1 497 410)" fill="#FFFFFF" font-family="'Arial'" font-size="16px">QTH03</text>
	<text id="XMLID_40_" transform="matrix(1 0 0 1 548.5703 410)" fill="#010101" font-family="'Arial'" font-size="12px">                     </text>
	<text id="XMLID_39_" transform="matrix(1 0 0 1 497 456)" fill="#FFFFFF" font-family="'Arial'" font-size="16px">QTH03</text>
	<text id="XMLID_38_" transform="matrix(1 0 0 1 548.5703 456)" fill="#010101" font-family="'Arial'" font-size="12px">                     </text>
	<text id="XMLID_37_" transform="matrix(1 0 0 1 497 502)" fill="#FFFFFF" font-family="'Arial'" font-size="16px">QTH05</text>
	<text id="XMLID_36_" transform="matrix(1 0 0 1 548.5703 502)" fill="#010101" font-family="'Arial'" font-size="12px">                     </text>
	<text id="XMLID_35_" transform="matrix(1 0 0 1 497 548)" fill="#FFFFFF" font-family="'Arial'" font-size="16px">QTH02</text>
	<text id="XMLID_34_" transform="matrix(1 0 0 1 548.5703 548)" fill="#010101" font-family="'Arial'" font-size="12px">                     </text>
	<text id="XMLID_33_" transform="matrix(1 0 0 1 497 594)" fill="#FFFFFF" font-family="'Arial'" font-size="16px">QTH10</text>
	<text id="XMLID_32_" transform="matrix(1 0 0 1 548.5703 594)" fill="#010101" font-family="'Arial'" font-size="12px">                 </text>
	<text id="XMLID_30_" transform="matrix(1 0 0 1 766.5234 363)" fill="#010101" font-family="'Arial'" font-size="12px">                     </text>
	<text id="XMLID_29_" transform="matrix(1 0 0 1 766.5234 363)" fill="#FFFFFF" font-family="'Arial'" font-size="16px">235.000.000</text>
	<text id="XMLID_28_" transform="matrix(1 0 0 1 855.4999 363)" fill="#010101" font-family="'Arial'" font-size="12px">                     </text>
	<text id="XMLID_27_" transform="matrix(1 0 0 1 766.5234 409)" fill="#FFFFFF" font-family="'Arial'" font-size="16px">235.000.000</text>
	<text id="XMLID_26_" transform="matrix(1 0 0 1 855.4999 409)" fill="#010101" font-family="'Arial'" font-size="12px">                     </text>
	<text id="XMLID_25_" transform="matrix(1 0 0 1 766.5234 455)" fill="#FFFFFF" font-family="'Arial'" font-size="16px">128.000.000</text>
	<text id="XMLID_24_" transform="matrix(1 0 0 1 855.4999 455)" fill="#010101" font-family="'Arial'" font-size="12px">                     </text>
	<text id="XMLID_23_" transform="matrix(1 0 0 1 766.5234 501)" fill="#FFFFFF" font-family="'Arial'" font-size="16px">120.000.000</text>
	<text id="XMLID_22_" transform="matrix(1 0 0 1 855.4999 501)" fill="#010101" font-family="'Arial'" font-size="12px">                     </text>
	<text id="XMLID_21_" transform="matrix(1 0 0 1 766.5234 547)" fill="#FFFFFF" font-family="'Arial'" font-size="16px">104.000.000</text>
	<text id="XMLID_20_" transform="matrix(1 0 0 1 855.4999 547)" fill="#010101" font-family="'Arial'" font-size="12px">                     </text>
	<text id="XMLID_19_" transform="matrix(1 0 0 1 775.4214 593)" fill="#FFFFFF" font-family="'Arial'" font-size="16px">99.000.000</text>
	<text id="XMLID_18_" transform="matrix(1 0 0 1 855.4995 593)" fill="#010101" font-family="'Arial'" font-size="12px">                 </text>
	<text id="XMLID_16_" transform="matrix(1 0 0 1 345.6631 193)" fill="#010101" font-family="'Arial'" font-size="12px">                     </text>
	<text id="XMLID_15_" transform="matrix(1 0 0 1 345.6631 193)" fill="#FFFFFF" font-family="'Arial'" font-weight="bold" font-size="22px">HỌ VÀ TÊN:</text>
	<text id="XMLID_14_" transform="matrix(1 0 0 1 472.7754 193)" fill="#010101" font-family="'Arial'" font-size="12px">                     </text>
	<text id="XMLID_13_" transform="matrix(1 0 0 1 472.7751 193)" fill="#FCEB76" font-family="'Arial'" font-weight="bold" font-size="22px"> LÊ XUÂN ĐĂNG</text>
	<text id="XMLID_12_" transform="matrix(1 0 0 1 646.3366 193)" fill="#010101" font-family="'Arial'" font-size="12px">                 </text>
	
		<image overflow="visible" enable-background="new    " width="155" height="40" id="XMLID_3_" xlink:href="images/btThoat.png"  transform="matrix(1 0 0 1 423.5 632.666)">
	</image>
	
		<rect id="btThoatBangXepHang_event" x="423.5" y="629.8" opacity="1.000000e-004" fill="#FFFFFF" enable-background="new    " width="155" height="45.3"/>
	<rect id="XMLID_2_" x="102.5" y="306.5" fill="#FFFFFF" width="797.5" height="298"/>
</g>
</svg>
