<?xml version="1.0" encoding="utf-8"?>
<!-- Generator: Adobe Illustrator 19.0.0, SVG Export Plug-In . SVG Version: 6.00 Build 0)  -->
<svg version="1.1" id="Layer_1" xmlns="http://www.w3.org/2000/svg" xmlns:xlink="http://www.w3.org/1999/xlink" x="0px" y="0px"
	 viewBox="0 0 798 298" enable-background="new 0 0 798 298" xml:space="preserve">
<g id="goidienchonguoithan" display="none" class="help">
                <text transform="matrix(1 0 0 1 111.7656 417)" fill="#FFFFFF" font-family="'Arial'" font-size="20">Gọi điện cho người thân</text>
                <image overflow="visible" width="86" height="86" xlink:href="images/goidienthoaiicon.png" transform="matrix(1 0 0 1 176.1484 290.6875)">
                </image>
                <text transform="matrix(1 0 0 1 305 187.667)" fill="#FFFFFF" font-family="'Arial'" font-size="19">CHỌN 1 TRONG NHỮNG NGƯỜI DƯỚI ĐÂY ĐỂ TRỢ GIÚP CHO BẠN</text>
                <path fill-rule="evenodd" clip-rule="evenodd" fill="#2F395B" stroke="#FFFFFF" stroke-width="2" stroke-miterlimit="10" d="
			M363.833,197.938h95c2.762,0,5,2.238,5,5v57c0,2.762-2.238,5-5,5h-95c-2.762,0-5-2.238-5-5v-57
			C358.833,200.176,361.072,197.938,363.833,197.938z" />
                <text transform="matrix(1 0 0 1 400 282.167)" text-anchor="middle">
                    <tspan x="0" y="0" fill="#FDEC75" font-family="'Arial'" font-size="14">A: </tspan>
                    <tspan x="16" y="0" fill="#FEFEFE" font-family="'Arial'" font-size="14">A</tspan>
                </text>
                <path fill-rule="evenodd" clip-rule="evenodd" fill="#2F395B" stroke="#FFFFFF" stroke-width="2" stroke-miterlimit="10" d="
			M561.5,197.938h95c2.762,0,5,2.238,5,5v57c0,2.762-2.238,5-5,5h-95c-2.762,0-5-2.238-5-5v-57
			C556.5,200.176,558.738,197.938,561.5,197.938z" />
                <text transform="matrix(1 0 0 1 600 282.167)" text-anchor="middle">
                    <tspan x="0" y="0" fill="#FDEC75" font-family="'Arial'" font-size="14">A: </tspan>
                    <tspan x="16" y="0" fill="#FEFEFE" font-family="'Arial'" font-size="14">A</tspan>
                </text>
                <path fill-rule="evenodd" clip-rule="evenodd" fill="#2F395B" stroke="#FFFFFF" stroke-width="2" stroke-miterlimit="10" d="
			M753.501,197.938h95c2.762,0,5,2.238,5,5v57c0,2.762-2.238,5-5,5h-95c-2.762,0-5-2.238-5-5v-57
			C748.501,200.176,750.739,197.938,753.501,197.938z" />
                <text transform="matrix(1 0 0 1 800 282.167)" text-anchor="middle">
                    <tspan x="0" y="0" fill="#FDEC75" font-family="'Arial'" font-size="14">A: </tspan>
                    <tspan x="16" y="0" fill="#FEFEFE" font-family="'Arial'" font-size="14">A</tspan>
                </text>
                <path fill-rule="evenodd" clip-rule="evenodd" fill="#2F395B" stroke="#FFFFFF" stroke-width="2" stroke-miterlimit="10" d="
			M363.833,295.271h95c2.762,0,5,2.238,5,5v57c0,2.762-2.238,5-5,5h-95c-2.762,0-5-2.238-5-5v-57
			C358.833,297.51,361.072,295.271,363.833,295.271z" />
                <text transform="matrix(1 0 0 1 400.6978 380.501)" text-anchor="middle">
                    <tspan x="0" y="0" fill="#FDEC75" font-family="'Arial'" font-size="14">A: </tspan>
                    <tspan x="16" y="0" fill="#FEFEFE" font-family="'Arial'" font-size="14">A</tspan>
                </text>
                <path fill-rule="evenodd" clip-rule="evenodd" fill="#2F395B" stroke="#FFFFFF" stroke-width="2" stroke-miterlimit="10" d="
			M561.5,295.271h95c2.762,0,5,2.238,5,5v57c0,2.762-2.238,5-5,5h-95c-2.762,0-5-2.238-5-5v-57
			C556.5,297.51,558.738,295.271,561.5,295.271z" />
                <text transform="matrix(1 0 0 1 600 380.501)" text-anchor="middle">
                    <tspan x="0" y="0" fill="#FDEC75" font-family="'Arial'" font-size="14">A: </tspan>
                    <tspan x="16" y="0" fill="#FEFEFE" font-family="'Arial'" font-size="14">A</tspan>
                </text>
                <path fill-rule="evenodd" clip-rule="evenodd" fill="#2F395B" stroke="#FFFFFF" stroke-width="2" stroke-miterlimit="10" d="
			M753.501,295.271h95c2.762,0,5,2.238,5,5v57c0,2.762-2.238,5-5,5h-95c-2.762,0-5-2.238-5-5v-57
			C748.501,297.51,750.739,295.271,753.501,295.271z" />
                <text transform="matrix(1 0 0 1 800 380.501)" text-anchor="middle">
                    <tspan x="0" y="0" fill="#FDEC75" font-family="'Arial'" font-size="14">A: </tspan>
                    <tspan x="16" y="0" fill="#FEFEFE" font-family="'Arial'" font-size="14">A</tspan>
                </text>


                <image overflow="visible" width="109" height="71" xlink:href="images/goidienthoaiAvata.png" transform="matrix(1 0 0 1 357.6665 196.666)">
                </image>
                <image overflow="visible" width="109" height="71" xlink:href="images/goidienthoaiAvata.png" transform="matrix(1 0 0 1 357.6665 293.1885)">
                </image>
                <image overflow="visible" width="109" height="71" xlink:href="images/goidienthoaiAvata.png" transform="matrix(1 0 0 1 554.8325 196.666)">
                </image>
                <image overflow="visible" width="109" height="71" xlink:href="images/goidienthoaiAvata.png" transform="matrix(1 0 0 1 554.8325 293.1885)">
                </image>
                <image overflow="visible" width="109" height="71" xlink:href="images/goidienthoaiAvata.png" transform="matrix(1 0 0 1 746.501 293.1875)">
                </image>
                <image overflow="visible" width="109" height="71" xlink:href="images/goidienthoaiAvata.png" transform="matrix(1 0 0 1 746.834 196.666)">
                </image>
            </g>
</svg>
