<?xml version="1.0" encoding="utf-8"?>
<!-- Generator: Adobe Illustrator 19.0.0, SVG Export Plug-In . SVG Version: 6.00 Build 0)  -->
<svg version="1.1" id="Layer_1" xmlns="http://www.w3.org/2000/svg" xmlns:xlink="http://www.w3.org/1999/xlink" x="0px" y="0px"
	 viewBox="308 -236 1280 720" enable-background="new 308 -236 1280 720" xml:space="preserve">
<g id="groupbangxephang">
	<path opacity="0.85" fill="#000F34" stroke="#FFF600" stroke-width="3" stroke-miterlimit="10" enable-background="new    " d="
		M406.5-86.5h799c16.6,0,30,13.4,30,30v480c0,16.6-13.4,30-30,30h-799c-16.6,0-30-13.4-30-30v-480C376.5-73.1,389.9-86.5,406.5-86.5
		z"/>
	<rect x="401.5" y="-25.5" opacity="0.5" fill="#0854BB" enable-background="new    " width="817" height="45"/>
	<text transform="matrix(1 0 0 1 429.4141 5)" font-family="'ArialMT'" font-size="12px">                     </text>
	<text transform="matrix(1 0 0 1 429.4141 5)" fill="#FFFFFE" font-family="'ArialMT'" font-size="20px">Hạng: </text>
	<text transform="matrix(1 0 0 1 488.3399 5)" font-family="'ArialMT'" font-size="12px">                     </text>
	<text transform="matrix(1 0 0 1 488.3401 5)" fill="#FDEC75" font-family="'ArialMT'" font-size="20px">25</text>
	<text transform="matrix(1 0 0 1 510.5862 5)" font-family="'ArialMT'" font-size="12px">                 </text>
	<text transform="matrix(1 0 0 1 654.5313 5)" font-family="'ArialMT'" font-size="12px">                     </text>
	<text transform="matrix(1 0 0 1 654.5313 5)" fill="#FFFFFE" font-family="'ArialMT'" font-size="20px">Lớp: </text>
	<text transform="matrix(1 0 0 1 701.0059 5)" font-family="'ArialMT'" font-size="12px">                     </text>
	<text transform="matrix(1 0 0 1 701.0063 5)" fill="#FDEC75" font-family="'ArialMT'" font-size="20px">QTH10</text>
	<text transform="matrix(1 0 0 1 765.4692 5)" font-family="'ArialMT'" font-size="12px">                 </text>
	<text transform="matrix(1 0 0 1 971.1631 5)" font-family="'ArialMT'" font-size="12px">                     </text>
	<text transform="matrix(1 0 0 1 927.1631 5)" fill="#FFFFFE" font-family="'ArialMT'" font-size="20px">Tổng LTTNPoint: </text>
	<text transform="matrix(1 0 0 1 1076.3779 5)" font-family="'ArialMT'" font-size="12px">                     </text>
	<text transform="matrix(1 0 0 1 1077.8621 5)" fill="#FDEC75" font-family="'ArialMT'" font-size="20px">1.000.000</text>
	<text transform="matrix(1 0 0 1 1166.8367 5)" font-family="'ArialMT'" font-size="12px">                 </text>
	<path opacity="0.2" fill="#0854BB" enable-background="new    " d="M1218,377c0,1.1-0.9,2-2,2H406.5c-1.1,0-2-0.9-2-2V42.5
		c0-1.1,0.9-2,2-2H1216c1.1,0,2,0.9,2,2V377z"/>
	<text transform="matrix(1 0 0 1 706.6484 60.5)" fill="#FDEC75" font-family="'Arial-BoldMT'" font-size="16px">BẢNG XẾP HẠNG TOP 10</text>
	<rect x="410.5" y="70.5" opacity="0.3" enable-background="new    " width="768" height="24.5"/>
	
		<line opacity="0.6" fill="none" stroke="#FFFFFF" stroke-miterlimit="10" enable-background="new    " x1="410.5" y1="70.5" x2="410.5" y2="368.5"/>
	
		<line opacity="0.6" fill="none" stroke="#FFFFFF" stroke-miterlimit="10" enable-background="new    " x1="479" y1="70.5" x2="479" y2="368.5"/>
	
		<line opacity="0.6" fill="none" stroke="#FFFFFF" stroke-miterlimit="10" enable-background="new    " x1="786.5" y1="70" x2="786.5" y2="368"/>
	
		<line opacity="0.6" fill="none" stroke="#FFFFFF" stroke-miterlimit="10" enable-background="new    " x1="875" y1="70.5" x2="875" y2="368.5"/>
	
		<line opacity="0.6" fill="none" stroke="#FFFFFF" stroke-miterlimit="10" enable-background="new    " x1="1178.5" y1="70" x2="1178.5" y2="368"/>
	<text transform="matrix(1 0 0 1 424.5 91)" font-family="'ArialMT'" font-size="12px">                     </text>
	<text transform="matrix(1 0 0 1 424.5 91)" fill="#FFFFFF" font-family="'Arial-BoldMT'" font-size="16px">Hạng</text>
	<text transform="matrix(1 0 0 1 464.5 91)" font-family="'ArialMT'" font-size="12px">                     </text>
	<text transform="matrix(1 0 0 1 524.5 91)" fill="#FFFFFF" font-family="'Arial-BoldMT'" font-size="16px">Họ &amp; Tên</text>
	<text transform="matrix(1 0 0 1 594.7188 91)" font-family="'ArialMT'" font-size="12px">                     </text>
	<text transform="matrix(1 0 0 1 593.391 91)" fill="#FFFFFF" font-family="'Arial-BoldMT'" font-size="16px" letter-spacing="6"> </text>
	<text transform="matrix(1 0 0 1 603.8363 91)" font-family="'ArialMT'" font-size="12px">                     </text>
	<text transform="matrix(1 0 0 1 809.5 91)" fill="#FFFFFF" font-family="'Arial-BoldMT'" font-size="16px"> Lớp</text>
	<text transform="matrix(1 0 0 1 844.8672 91)" font-family="'ArialMT'" font-size="12px">                     </text>
	<text transform="matrix(1 0 0 1 1072.5 91)" fill="#FFFFFF" font-family="'Arial-BoldMT'" font-size="16px"> LTTNPoint</text>
	<text transform="matrix(1 0 0 1 1156.625 91)" font-family="'ArialMT'" font-size="12px">                 </text>
	<text transform="matrix(1 0 0 1 434 128)" font-family="'ArialMT'" font-size="12px">                     </text>
	<text transform="matrix(1 0 0 1 434 128)" fill="#FDEC75" font-family="'Arial-BoldMT'" font-size="16px">01</text>
	<text transform="matrix(1 0 0 1 451.7969 128)" font-family="'ArialMT'" font-size="12px">                     </text>
	<text transform="matrix(1 0 0 1 434 174)" fill="#FDEC75" font-family="'Arial-BoldMT'" font-size="16px">02</text>
	<text transform="matrix(1 0 0 1 451.7969 174)" font-family="'ArialMT'" font-size="12px">                     </text>
	<text transform="matrix(1 0 0 1 434 220)" fill="#FDEC75" font-family="'Arial-BoldMT'" font-size="16px">03</text>
	<text transform="matrix(1 0 0 1 451.7969 220)" font-family="'ArialMT'" font-size="12px">                     </text>
	<text transform="matrix(1 0 0 1 434 266)" fill="#FFFFFF" font-family="'Arial-BoldMT'" font-size="16px">04</text>
	<text transform="matrix(1 0 0 1 451.7969 266)" font-family="'ArialMT'" font-size="12px">                     </text>
	<text transform="matrix(1 0 0 1 434 312)" fill="#FFFFFF" font-family="'Arial-BoldMT'" font-size="16px">05</text>
	<text transform="matrix(1 0 0 1 451.7969 312)" font-family="'ArialMT'" font-size="12px">                     </text>
	<text transform="matrix(1 0 0 1 434 358)" fill="#FFFFFF" font-family="'Arial-BoldMT'" font-size="16px">06</text>
	<text transform="matrix(1 0 0 1 451.7969 358)" font-family="'ArialMT'" font-size="12px">                 </text>
	<text transform="matrix(1 0 0 1 523 127)" font-family="'ArialMT'" font-size="12px">                     </text>
	<text transform="matrix(1 0 0 1 523 127)" fill="#FFFFFF" font-family="'ArialMT'" font-size="16px">Nguyễn Văn Anh</text>
	<text transform="matrix(1 0 0 1 643.0938 127)" font-family="'ArialMT'" font-size="12px">                     </text>
	<text transform="matrix(1 0 0 1 523 173)" fill="#FFFFFF" font-family="'ArialMT'" font-size="16px">Nguyễn Hồng Thơm</text>
	<text transform="matrix(1 0 0 1 667.4922 173)" font-family="'ArialMT'" font-size="12px">                     </text>
	<text transform="matrix(1 0 0 1 523 219)" fill="#FFFFFF" font-family="'ArialMT'" font-size="16px">Nguyễn Tuấn Anh</text>
	<text transform="matrix(1 0 0 1 650.2109 219)" font-family="'ArialMT'" font-size="12px">                     </text>
	<text transform="matrix(1 0 0 1 523 265)" fill="#FFFFFF" font-family="'ArialMT'" font-size="16px">Lê Xuân Công</text>
	<text transform="matrix(1 0 0 1 625.3047 265)" font-family="'ArialMT'" font-size="12px">                     </text>
	<text transform="matrix(1 0 0 1 523 311)" fill="#FFFFFF" font-family="'ArialMT'" font-size="16px">Trần Thị Phương</text>
	<text transform="matrix(1 0 0 1 644.7031 311)" font-family="'ArialMT'" font-size="12px">                     </text>
	<text transform="matrix(1 0 0 1 523 357)" fill="#FFFFFF" font-family="'ArialMT'" font-size="16px">Trần Thế Giang</text>
	<text transform="matrix(1 0 0 1 634.1719 357)" font-family="'ArialMT'" font-size="12px">                 </text>
	<text transform="matrix(1 0 0 1 805 128)" font-family="'ArialMT'" font-size="12px">                     </text>
	<text transform="matrix(1 0 0 1 805 128)" fill="#FFFFFF" font-family="'ArialMT'" font-size="16px">QTH01</text>
	<text transform="matrix(1 0 0 1 856.5703 128)" font-family="'ArialMT'" font-size="12px">                     </text>
	<text transform="matrix(1 0 0 1 805 174)" fill="#FFFFFF" font-family="'ArialMT'" font-size="16px">QTH03</text>
	<text transform="matrix(1 0 0 1 856.5703 174)" font-family="'ArialMT'" font-size="12px">                     </text>
	<text transform="matrix(1 0 0 1 805 220)" fill="#FFFFFF" font-family="'ArialMT'" font-size="16px">QTH03</text>
	<text transform="matrix(1 0 0 1 856.5703 220)" font-family="'ArialMT'" font-size="12px">                     </text>
	<text transform="matrix(1 0 0 1 805 266)" fill="#FFFFFF" font-family="'ArialMT'" font-size="16px">QTH05</text>
	<text transform="matrix(1 0 0 1 856.5703 266)" font-family="'ArialMT'" font-size="12px">                     </text>
	<text transform="matrix(1 0 0 1 805 312)" fill="#FFFFFF" font-family="'ArialMT'" font-size="16px">QTH02</text>
	<text transform="matrix(1 0 0 1 856.5703 312)" font-family="'ArialMT'" font-size="12px">                     </text>
	<text transform="matrix(1 0 0 1 805 358)" fill="#FFFFFF" font-family="'ArialMT'" font-size="16px">QTH10</text>
	<text transform="matrix(1 0 0 1 856.5703 358)" font-family="'ArialMT'" font-size="12px">                 </text>
	<text transform="matrix(1 0 0 1 1074.5234 127)" font-family="'ArialMT'" font-size="12px">                     </text>
	<text transform="matrix(1 0 0 1 1074.5234 127)" fill="#FFFFFF" font-family="'ArialMT'" font-size="16px">235.000.000</text>
	<text transform="matrix(1 0 0 1 1163.5 127)" font-family="'ArialMT'" font-size="12px">                     </text>
	<text transform="matrix(1 0 0 1 1074.5234 173)" fill="#FFFFFF" font-family="'ArialMT'" font-size="16px">235.000.000</text>
	<text transform="matrix(1 0 0 1 1163.5 173)" font-family="'ArialMT'" font-size="12px">                     </text>
	<text transform="matrix(1 0 0 1 1074.5234 219)" fill="#FFFFFF" font-family="'ArialMT'" font-size="16px">128.000.000</text>
	<text transform="matrix(1 0 0 1 1163.5 219)" font-family="'ArialMT'" font-size="12px">                     </text>
	<text transform="matrix(1 0 0 1 1074.5234 265)" fill="#FFFFFF" font-family="'ArialMT'" font-size="16px">120.000.000</text>
	<text transform="matrix(1 0 0 1 1163.5 265)" font-family="'ArialMT'" font-size="12px">                     </text>
	<text transform="matrix(1 0 0 1 1074.5234 311)" fill="#FFFFFF" font-family="'ArialMT'" font-size="16px">104.000.000</text>
	<text transform="matrix(1 0 0 1 1163.5 311)" font-family="'ArialMT'" font-size="12px">                     </text>
	<text transform="matrix(1 0 0 1 1083.4214 357)" fill="#FFFFFF" font-family="'ArialMT'" font-size="16px">99.000.000</text>
	<text transform="matrix(1 0 0 1 1163.4995 357)" font-family="'ArialMT'" font-size="12px">                 </text>
	<text transform="matrix(1 0 0 1 653.6631 -43)" font-family="'ArialMT'" font-size="12px">                     </text>
	<text transform="matrix(1 0 0 1 653.6631 -43)" fill="#FFFFFF" font-family="'Arial-BoldMT'" font-size="22px">HỌ VÀ TÊN:</text>
	<text transform="matrix(1 0 0 1 780.7754 -43)" font-family="'ArialMT'" font-size="12px">                     </text>
	<text transform="matrix(1 0 0 1 780.7751 -43)" fill="#FDEC75" font-family="'Arial-BoldMT'" font-size="22px"> LÊ XUÂN ĐĂNG</text>
	<text transform="matrix(1 0 0 1 954.3366 -43)" font-family="'ArialMT'" font-size="12px">                 </text>
	
		<image overflow="visible" enable-background="new    " width="155" height="40" xlink:href="images/btThoat.png"  transform="matrix(1 0 0 1 731.5 396.666)">
	</image>
	
		<rect id="btThoatBangXepHang_event" x="731.5" y="393.8" opacity="1.000000e-004" fill="#FFFFFF" enable-background="new    " width="155" height="45.3"/>
	<rect x="410.5" y="70.5" fill="#FFFFFF" width="797.5" height="298"/>
</g>
</svg>
