<?xml version="1.0" encoding="utf-8"?>
<!-- Generator: Adobe Illustrator 19.0.0, SVG Export Plug-In . SVG Version: 6.00 Build 0)  -->
<svg version="1.1" id="Layer_1" xmlns="http://www.w3.org/2000/svg" xmlns:xlink="http://www.w3.org/1999/xlink" x="0px" y="0px"
	 viewBox="0 0 1280 720" enable-background="new 0 0 1280 720" xml:space="preserve">
<g id="playgame">
	<g id="groupbangxephang">
			
			<path id="XMLID_86_" opacity="0.65" fill="#010101" stroke="#1D4776" stroke-width="3" stroke-miterlimit="10" enable-background="new    " d="
			M301.4,131.2h664.4c13.8,0,24.9,11.1,24.9,24.9v399.1c0,13.8-11.1,24.9-24.9,24.9H301.4c-13.8,0-24.9-11.1-24.9-24.9V156.1
			C276.5,142.3,287.6,131.2,301.4,131.2z"/>
		
			<rect id="XMLID_85_" x="297.3" y="181.9" opacity="0.5" fill="#2B59A8" enable-background="new    " width="679.3" height="37.4"/>
		
			<text id="XMLID_84_" transform="matrix(1 0 0 1 320.4971 207.2661)" fill="#FFFFFF" font-family="'Arial'" font-size="16.6296px">Hạng:</text>
		
			<text id="XMLID_83_" transform="matrix(1 0 0 1 369.4932 207.2661)" fill="#FCEB76" font-family="'Arial'" font-size="16.6296px">25</text>
		
			<text id="XMLID_82_" transform="matrix(1 0 0 1 581.6543 207.2661)" fill="#FFFFFF" font-family="'Arial'" font-size="16.6296px">Lớp:</text>
		
			<text id="XMLID_81_" transform="matrix(1 0 0 1 620.2969 207.2661)" fill="#FCEB76" font-family="'Arial'" font-size="16.6296px">QTH10</text>
		
			<text id="XMLID_80_" transform="matrix(1 0 0 1 747.6709 207.2661)" fill="#FFFFFF" font-family="'Arial'" font-size="16.6296px">Tổng LTTNPoint:</text>
		
			<text id="XMLID_79_" transform="matrix(1 0 0 1 881.2871 207.2661)" fill="#FCEB76" font-family="'Arial'" font-size="16.6296px">1.000.000</text>
		
			<text id="XMLID_78_" transform="matrix(1 0 0 1 551.0127 253.4135)" fill="#FCEB76" font-family="'Arial'" font-weight="bold" font-size="13.3037px">BẢNG XẾP HẠNG TOP 10</text>
		
			<rect id="XMLID_77_" x="304.8" y="261.7" opacity="0.3" fill="#2E6CAB" enable-background="new    " width="638.6" height="29.5"/>
		
			<line id="XMLID_76_" opacity="0.6" fill="none" stroke="#FFFFFF" stroke-miterlimit="10" enable-background="new    " x1="304.8" y1="261.7" x2="304.8" y2="509.5"/>
		
			<line id="XMLID_75_" opacity="0.6" fill="none" stroke="#FFFFFF" stroke-miterlimit="10" enable-background="new    " x1="361.7" y1="261.7" x2="361.7" y2="509.5"/>
		
			<line id="XMLID_74_" opacity="0.6" fill="none" stroke="#FFFFFF" stroke-miterlimit="10" enable-background="new    " x1="617.4" y1="261.3" x2="617.4" y2="509.1"/>
		
			<line id="XMLID_73_" opacity="0.6" fill="none" stroke="#FFFFFF" stroke-miterlimit="10" enable-background="new    " x1="691" y1="261.7" x2="691" y2="509.5"/>
		
			<line id="XMLID_72_" opacity="0.6" fill="none" stroke="#FFFFFF" stroke-miterlimit="10" enable-background="new    " x1="943.3" y1="261.3" x2="943.3" y2="509.1"/>
		
			<text id="XMLID_71_" transform="matrix(1 0 0 1 316.4111 281.269)" fill="#FFFFFF" font-family="'Arial'" font-weight="bold" font-size="13.3037px">Hạng</text>
		
			<text id="XMLID_70_" transform="matrix(1 0 0 1 399.5596 281.269)" fill="#FFFFFF" font-family="'Arial'" font-weight="bold" font-size="13.3037px">Họ &amp; Tên</text>
		
			<text id="XMLID_69_" transform="matrix(1 0 0 1 636.5322 281.269)" fill="#FFFFFF" font-family="'Arial'" font-weight="bold" font-size="13.3037px">Lớp</text>
		
			<text id="XMLID_68_" transform="matrix(1 0 0 1 855.2109 281.269)" fill="#FFFFFF" font-family="'Arial'" font-weight="bold" font-size="13.3037px">LTTNPoint</text>
		
			<text id="XMLID_67_" transform="matrix(1 0 0 1 324.3105 309.5385)" fill="#FCEB76" font-family="'Arial'" font-weight="bold" font-size="13.3037px">01</text>
		
			<text id="XMLID_66_" transform="matrix(1 0 0 1 324.3105 347.7866)" fill="#FCEB76" font-family="'Arial'" font-weight="bold" font-size="13.3037px">02</text>
		
			<text id="XMLID_65_" transform="matrix(1 0 0 1 324.3105 386.0346)" fill="#FCEB76" font-family="'Arial'" font-weight="bold" font-size="13.3037px">03</text>
		
			<text id="XMLID_64_" transform="matrix(1 0 0 1 324.3105 424.2837)" fill="#FFFFFF" font-family="'Arial'" font-weight="bold" font-size="13.3037px">04</text>
		
			<text id="XMLID_63_" transform="matrix(1 0 0 1 324.3105 462.5307)" fill="#FFFFFF" font-family="'Arial'" font-weight="bold" font-size="13.3037px">05</text>
		
			<text id="XMLID_62_" transform="matrix(1 0 0 1 324.3105 500.7798)" fill="#FFFFFF" font-family="'Arial'" font-weight="bold" font-size="13.3037px">06</text>
		
			<text id="XMLID_61_" transform="matrix(1 0 0 1 398.3125 308.7076)" fill="#FFFFFF" font-family="'Arial'" font-size="13.3037px">Nguyễn Văn Anh</text>
		
			<text id="XMLID_60_" transform="matrix(1 0 0 1 398.3125 346.9546)" fill="#FFFFFF" font-family="'Arial'" font-size="13.3037px">Nguyễn Hồng Thơm</text>
		
			<text id="XMLID_59_" transform="matrix(1 0 0 1 398.3125 385.2036)" fill="#FFFFFF" font-family="'Arial'" font-size="13.3037px">Nguyễn Tuấn Anh</text>
		
			<text id="XMLID_58_" transform="matrix(1 0 0 1 398.3125 423.4516)" fill="#FFFFFF" font-family="'Arial'" font-size="13.3037px">Lê Xuân Công</text>
		
			<text id="XMLID_57_" transform="matrix(1 0 0 1 398.3125 461.6997)" fill="#FFFFFF" font-family="'Arial'" font-size="13.3037px">Trần Thị Phương</text>
		
			<text id="XMLID_56_" transform="matrix(1 0 0 1 398.3125 499.9487)" fill="#FFFFFF" font-family="'Arial'" font-size="13.3037px">Trần Thế Giang</text>
		
			<text id="XMLID_55_" transform="matrix(1 0 0 1 632.791 309.5385)" fill="#FFFFFF" font-family="'Arial'" font-size="13.3037px">QTH01</text>
		
			<text id="XMLID_54_" transform="matrix(1 0 0 1 632.791 347.7866)" fill="#FFFFFF" font-family="'Arial'" font-size="13.3037px">QTH03</text>
		
			<text id="XMLID_53_" transform="matrix(1 0 0 1 632.791 386.0346)" fill="#FFFFFF" font-family="'Arial'" font-size="13.3037px">QTH03</text>
		
			<text id="XMLID_52_" transform="matrix(1 0 0 1 632.791 424.2837)" fill="#FFFFFF" font-family="'Arial'" font-size="13.3037px">QTH05</text>
		
			<text id="XMLID_51_" transform="matrix(1 0 0 1 632.791 462.5307)" fill="#FFFFFF" font-family="'Arial'" font-size="13.3037px">QTH02</text>
		
			<text id="XMLID_50_" transform="matrix(1 0 0 1 632.791 500.7798)" fill="#FFFFFF" font-family="'Arial'" font-size="13.3037px">QTH10</text>
		
			<text id="XMLID_49_" transform="matrix(1 0 0 1 856.8926 308.7076)" fill="#FFFFFF" font-family="'Arial'" font-size="13.3037px">235.000.000</text>
		
			<text id="XMLID_48_" transform="matrix(1 0 0 1 856.8926 346.9546)" fill="#FFFFFF" font-family="'Arial'" font-size="13.3037px">235.000.000</text>
		
			<text id="XMLID_47_" transform="matrix(1 0 0 1 856.8926 385.2036)" fill="#FFFFFF" font-family="'Arial'" font-size="13.3037px">128.000.000</text>
		
			<text id="XMLID_46_" transform="matrix(1 0 0 1 856.8926 423.4516)" fill="#FFFFFF" font-family="'Arial'" font-size="13.3037px">120.000.000</text>
		
			<text id="XMLID_45_" transform="matrix(1 0 0 1 856.8926 461.6997)" fill="#FFFFFF" font-family="'Arial'" font-size="13.3037px">104.000.000</text>
		
			<text id="XMLID_44_" transform="matrix(1 0 0 1 864.293 499.9487)" fill="#FFFFFF" font-family="'Arial'" font-size="13.3037px">99.000.000</text>
		
			<text id="XMLID_43_" transform="matrix(1 0 0 1 506.9561 167.356)" fill="#FFFFFF" font-family="'Arial'" font-weight="bold" font-size="18.2926px">HỌ VÀ TÊN:</text>
		
			<text id="XMLID_42_" transform="matrix(1 0 0 1 612.6475 167.356)" fill="#FCEB76" font-family="'Arial'" font-weight="bold" font-size="18.2926px">LÊ XUÂN ĐĂNG</text>
		
			<image overflow="visible" enable-background="new    " width="155" height="40" id="XMLID_34_" xlink:href="images/btThoat.png"  transform="matrix(0.8315 0 0 0.8315 571.6759 532.9296)">
		</image>
		
			<rect id="btThoatBangXepHang_event" x="571.7" y="530.6" opacity="1.000000e-004" fill="#FFFFFF" enable-background="new    " width="128.9" height="37.7"/>
	</g>
	<g id="bangxephang">
		
			<image overflow="visible" enable-background="new    " width="227" height="415" id="XMLID_26_" xlink:href="images/logo2.png"  transform="matrix(1.0819 0 0 1.0819 1 131.1861)">
		</image>
		<g id="XMLID_20_">
			<g id="XMLID_21_">
				<g id="XMLID_22_">
					<g id="XMLID_23_">
						<defs>
							<path id="XMLID_25_" d="M266.4,1.2h765.2c18.5,0,33.4,10.3,33.4,23v113c0,12.7-15,23-33.4,23H266.4
								c-18.5,0-33.4-10.3-33.4-23v-113C233,11.5,248,1.2,266.4,1.2z"/>
						</defs>
						<clipPath id="XMLID_91_">
							<use xlink:href="#XMLID_25_"  overflow="visible"/>
						</clipPath>
						
							<path id="XMLID_24_" opacity="0.65" clip-path="url(#XMLID_91_)" fill="#010101" stroke="#BAD3EE" stroke-width="3" stroke-miterlimit="10" enable-background="new    " d="
							M308-63.3h653c15.7,0,28.5,10.8,28.5,24.1V78.7c0,13.3-12.8,24.1-28.5,24.1H308c-15.7,0-28.5-10.8-28.5-24.1V-39.2
							C279.5-52.5,292.3-63.3,308-63.3z"/>
					</g>
				</g>
			</g>
		</g>
		
			<image overflow="visible" enable-background="new    " width="211" height="274" id="XMLID_12_" xlink:href="images/quaylaibatdau.png"  transform="matrix(1 0 0 1 1071 280.186)">
		</image>
		
			<rect id="btIntroQuayLai_event" x="1071" y="279.2" opacity="1.000000e-003" fill="#010101" enable-background="new    " width="211" height="129.5"/>
		
			<rect id="btIntroBatDau_event" x="1072" y="425.7" opacity="1.000000e-003" fill="#010101" enable-background="new    " width="211" height="129.5"/>
		<g id="huongdanlambai" display="none">
			
				<image display="inline" overflow="visible" enable-background="new    " width="497" height="73" id="XMLID_4_" xlink:href="images/hungdanlambai.png"  transform="matrix(1 0 0 1 391 14.186)">
			</image>
			
				<path id="XMLID_3_" display="inline" opacity="0.65" fill="#010101" stroke="#BAD3EE" stroke-width="2" stroke-miterlimit="10" enable-background="new    " d="
				M310.5,143.7h645c16.6,0,30,13.4,30,30v347c0,16.6-13.4,30-30,30h-645c-16.6,0-30-13.4-30-30v-347
				C280.5,157.1,293.9,143.7,310.5,143.7z"/>
		</g>
	</g>
</g>
<rect id="XMLID_2_" x="304.8" y="261.7" fill="#FFFFFF" width="662.3" height="247.8"/>
</svg>
